<svg xmlns="http://www.w3.org/2000/svg" xmlns:xlink="http://www.w3.org/1999/xlink" width="375" viewBox="0 0 375 225" height="225" version="1.0"><defs><g id="b"><path d="M 18.804688 0 L 21.148438 0 C 21.519531 0 21.847656 -0.125 22.09375 -0.453125 C 22.339844 -0.78125 22.382812 -1.109375 22.300781 -1.523438 C 22.09375 -2.222656 21.929688 -2.757812 21.847656 -3.167969 C 21.765625 -3.539062 21.683594 -3.867188 21.601562 -4.195312 C 21.519531 -4.484375 21.394531 -4.8125 21.3125 -5.144531 C 21.230469 -5.472656 21.066406 -5.964844 20.902344 -6.625 C 20.738281 -7.28125 20.488281 -8.148438 20.203125 -9.214844 C 19.914062 -10.285156 19.542969 -11.683594 19.089844 -13.453125 C 18.597656 -15.183594 18.023438 -17.363281 17.320312 -19.957031 C 16.621094 -22.507812 15.800781 -25.632812 14.851562 -29.253906 C 14.769531 -29.5 14.648438 -29.746094 14.441406 -29.914062 C 14.195312 -30.078125 13.949219 -30.160156 13.703125 -30.160156 L 10.738281 -30.160156 C 10.449219 -30.160156 10.203125 -30.078125 10 -29.914062 C 9.75 -29.746094 9.628906 -29.5 9.585938 -29.253906 C 9.339844 -28.472656 9.050781 -27.402344 8.679688 -26.003906 C 8.3125 -24.605469 7.898438 -23.082031 7.445312 -21.355469 C 6.996094 -19.625 6.5 -17.816406 6.007812 -15.921875 C 5.511719 -14.03125 5.019531 -12.179688 4.527344 -10.367188 C 4.03125 -8.558594 3.578125 -6.914062 3.167969 -5.347656 C 2.757812 -3.785156 2.386719 -2.511719 2.140625 -1.523438 C 2.015625 -1.109375 2.097656 -0.78125 2.34375 -0.453125 C 2.59375 -0.125 2.878906 0 3.292969 0 L 5.636719 0 C 6.214844 0 6.582031 -0.289062 6.789062 -0.90625 C 6.914062 -1.316406 7.035156 -1.851562 7.199219 -2.46875 C 7.363281 -3.042969 7.53125 -3.746094 7.734375 -4.484375 C 7.898438 -5.0625 8.3125 -5.390625 8.929688 -5.390625 L 15.511719 -5.390625 C 16.085938 -5.390625 16.5 -5.0625 16.703125 -4.484375 C 16.953125 -3.496094 17.117188 -2.757812 17.28125 -2.179688 C 17.445312 -1.605469 17.570312 -1.191406 17.652344 -0.90625 C 17.816406 -0.289062 18.226562 0 18.804688 0 Z M 9.628906 -11.5625 C 9.875 -12.425781 10.082031 -13.289062 10.328125 -14.195312 C 10.574219 -15.058594 10.820312 -15.921875 11.066406 -16.828125 C 11.148438 -17.117188 11.273438 -17.320312 11.519531 -17.488281 C 11.726562 -17.652344 11.972656 -17.734375 12.21875 -17.734375 C 12.46875 -17.734375 12.671875 -17.652344 12.917969 -17.488281 C 13.125 -17.320312 13.289062 -17.117188 13.371094 -16.828125 C 13.617188 -15.839844 13.867188 -14.894531 14.113281 -14.03125 C 14.359375 -13.125 14.566406 -12.300781 14.8125 -11.5625 C 14.894531 -11.148438 14.851562 -10.820312 14.605469 -10.492188 C 14.359375 -10.164062 14.03125 -10.039062 13.660156 -10.039062 L 10.78125 -10.039062 C 10.367188 -10.039062 10.082031 -10.164062 9.832031 -10.492188 C 9.585938 -10.820312 9.503906 -11.148438 9.628906 -11.5625 Z M 9.628906 -11.5625"/></g><g id="c"><path d="M 20.039062 -30.160156 L 17.816406 -30.160156 C 17.488281 -30.160156 17.199219 -30.035156 16.953125 -29.789062 C 16.703125 -29.542969 16.582031 -29.296875 16.582031 -28.964844 L 16.582031 -12.054688 C 16.582031 -11.808594 16.457031 -11.644531 16.253906 -11.601562 C 15.964844 -11.519531 15.800781 -11.601562 15.71875 -11.851562 L 7.488281 -29.460938 C 7.28125 -29.914062 6.914062 -30.160156 6.417969 -30.160156 L 3.25 -30.160156 C 2.921875 -30.160156 2.632812 -30.035156 2.386719 -29.789062 C 2.140625 -29.542969 2.058594 -29.296875 2.058594 -28.964844 L 2.058594 -1.191406 C 2.058594 -0.863281 2.140625 -0.574219 2.386719 -0.328125 C 2.632812 -0.0820312 2.921875 0 3.25 0 L 5.472656 0 C 5.800781 0 6.089844 -0.0820312 6.335938 -0.328125 C 6.582031 -0.574219 6.707031 -0.863281 6.707031 -1.191406 L 6.707031 -18.105469 C 6.707031 -18.351562 6.828125 -18.472656 7.078125 -18.554688 C 7.324219 -18.597656 7.488281 -18.515625 7.570312 -18.308594 L 15.800781 -0.699219 C 16.003906 -0.207031 16.375 0 16.871094 0 L 20.039062 0 C 20.367188 0 20.65625 -0.125 20.902344 -0.371094 C 21.105469 -0.574219 21.230469 -0.863281 21.230469 -1.191406 L 21.230469 -28.964844 C 21.230469 -29.296875 21.105469 -29.542969 20.859375 -29.789062 C 20.613281 -30.035156 20.367188 -30.160156 20.039062 -30.160156 Z M 20.039062 -30.160156"/></g><g id="d"><path d="M 26.992188 -15.71875 L 16.746094 -15.71875 C 16.417969 -15.71875 16.128906 -15.59375 15.882812 -15.347656 C 15.636719 -15.101562 15.554688 -14.851562 15.554688 -14.523438 L 15.554688 -12.300781 C 15.554688 -11.933594 15.636719 -11.644531 15.882812 -11.398438 C 16.128906 -11.148438 16.417969 -11.066406 16.746094 -11.066406 L 21.765625 -11.066406 C 21.972656 -11.066406 22.136719 -10.984375 22.257812 -10.820312 C 22.339844 -10.65625 22.382812 -10.449219 22.339844 -10.246094 C 21.929688 -9.011719 21.4375 -8.023438 20.777344 -7.28125 C 20.121094 -6.542969 19.460938 -5.964844 18.722656 -5.554688 C 17.980469 -5.144531 17.28125 -4.894531 16.621094 -4.8125 C 15.921875 -4.691406 15.347656 -4.648438 14.851562 -4.648438 C 14.195312 -4.648438 13.414062 -4.730469 12.507812 -4.9375 C 11.601562 -5.144531 10.699219 -5.597656 9.832031 -6.335938 C 8.96875 -7.035156 8.230469 -8.0625 7.613281 -9.464844 C 6.996094 -10.820312 6.707031 -12.671875 6.707031 -15.058594 C 6.707031 -17.40625 6.996094 -19.257812 7.613281 -20.65625 C 8.230469 -22.054688 8.96875 -23.082031 9.832031 -23.824219 C 10.699219 -24.523438 11.601562 -24.976562 12.507812 -25.179688 C 13.414062 -25.386719 14.195312 -25.511719 14.851562 -25.511719 C 15.183594 -25.511719 15.59375 -25.46875 16.085938 -25.425781 C 16.582031 -25.34375 17.074219 -25.222656 17.609375 -25.058594 C 18.105469 -24.894531 18.640625 -24.644531 19.171875 -24.316406 C 19.707031 -23.988281 20.203125 -23.535156 20.695312 -23 C 20.941406 -22.753906 21.191406 -22.710938 21.476562 -22.875 L 24.441406 -24.5625 C 24.605469 -24.644531 24.6875 -24.808594 24.726562 -24.976562 C 24.769531 -25.140625 24.726562 -25.304688 24.644531 -25.46875 C 23.492188 -27.03125 22.054688 -28.183594 20.40625 -28.964844 C 18.761719 -29.746094 16.910156 -30.160156 14.851562 -30.160156 C 12.796875 -30.160156 10.902344 -29.746094 9.257812 -28.964844 C 7.613281 -28.183594 6.214844 -27.03125 5.0625 -25.46875 C 4.074219 -24.152344 3.292969 -22.589844 2.796875 -20.859375 C 2.304688 -19.089844 2.058594 -17.15625 2.058594 -15.058594 C 2.058594 -10.820312 3.042969 -7.363281 5.0625 -4.648438 C 7.40625 -1.523438 10.65625 0 14.851562 0 C 16.910156 0 18.761719 -0.371094 20.40625 -1.152344 C 22.054688 -1.933594 23.492188 -3.085938 24.644531 -4.648438 C 25.714844 -6.128906 26.496094 -7.777344 26.949219 -9.585938 C 27.402344 -11.398438 27.648438 -13.207031 27.648438 -15.101562 C 27.648438 -15.265625 27.566406 -15.386719 27.445312 -15.511719 C 27.320312 -15.636719 27.15625 -15.71875 26.992188 -15.71875 Z M 26.992188 -15.71875"/></g><g id="e"><path d="M 10.039062 -30.160156 L 3.25 -30.160156 C 2.921875 -30.160156 2.632812 -30.035156 2.386719 -29.789062 C 2.140625 -29.542969 2.058594 -29.296875 2.058594 -28.964844 L 2.058594 -1.191406 C 2.058594 -0.863281 2.140625 -0.574219 2.386719 -0.328125 C 2.632812 -0.0820312 2.921875 0 3.25 0 L 5.511719 0 C 5.84375 0 6.089844 -0.0820312 6.335938 -0.328125 C 6.582031 -0.574219 6.707031 -0.863281 6.707031 -1.191406 L 6.707031 -7.777344 C 6.707031 -8.105469 6.789062 -8.351562 7.035156 -8.597656 C 7.28125 -8.847656 7.570312 -8.96875 7.898438 -8.96875 L 9.546875 -8.96875 C 10.121094 -8.96875 10.492188 -8.679688 10.699219 -8.1875 L 13.371094 -0.78125 C 13.535156 -0.246094 13.949219 0 14.523438 0 L 16.871094 0 C 17.28125 0 17.609375 -0.164062 17.855469 -0.492188 C 18.105469 -0.824219 18.144531 -1.191406 18.023438 -1.605469 L 15.058594 -9.75 C 14.851562 -10.246094 14.976562 -10.65625 15.386719 -11.027344 C 16.292969 -11.890625 17.035156 -12.960938 17.570312 -14.277344 C 18.105469 -15.554688 18.433594 -16.910156 18.554688 -18.351562 C 18.679688 -19.75 18.597656 -21.191406 18.308594 -22.589844 C 17.980469 -23.988281 17.488281 -25.222656 16.789062 -26.375 C 16.046875 -27.484375 15.140625 -28.390625 14.03125 -29.089844 C 12.878906 -29.789062 11.5625 -30.160156 10.039062 -30.160156 Z M 6.707031 -14.8125 L 6.707031 -24.316406 C 6.707031 -24.644531 6.789062 -24.894531 7.035156 -25.140625 C 7.28125 -25.386719 7.570312 -25.511719 7.898438 -25.511719 L 10.121094 -25.511719 C 10.984375 -25.511719 11.726562 -25.179688 12.300781 -24.605469 C 12.878906 -24.027344 13.289062 -23.289062 13.578125 -22.425781 C 13.867188 -21.519531 14.03125 -20.574219 14.03125 -19.542969 C 14.03125 -18.515625 13.867188 -17.570312 13.578125 -16.703125 C 13.25 -15.800781 12.835938 -15.058594 12.261719 -14.484375 C 11.683594 -13.90625 10.945312 -13.617188 10.121094 -13.617188 L 7.898438 -13.617188 C 7.570312 -13.617188 7.28125 -13.703125 7.035156 -13.949219 C 6.789062 -14.195312 6.707031 -14.484375 6.707031 -14.8125 Z M 6.707031 -14.8125"/></g><g id="f"><path d="M 9.132812 -9.339844 L 9.132812 -1.191406 C 9.132812 -0.863281 9.257812 -0.574219 9.503906 -0.328125 C 9.75 -0.0820312 10.039062 0 10.367188 0 L 12.589844 0 C 12.917969 0 13.167969 -0.0820312 13.414062 -0.328125 C 13.660156 -0.574219 13.785156 -0.863281 13.785156 -1.191406 L 13.785156 -9.339844 L 20.777344 -28.554688 C 20.902344 -28.964844 20.859375 -29.296875 20.613281 -29.625 C 20.367188 -29.953125 20.039062 -30.160156 19.625 -30.160156 L 17.28125 -30.160156 C 16.703125 -30.160156 16.292969 -29.871094 16.128906 -29.378906 L 11.808594 -17.445312 C 11.726562 -17.28125 11.644531 -17.238281 11.480469 -17.238281 C 11.316406 -17.238281 11.191406 -17.28125 11.148438 -17.445312 L 6.789062 -29.378906 C 6.582031 -29.871094 6.214844 -30.160156 5.679688 -30.160156 L 3.292969 -30.160156 C 2.878906 -30.160156 2.550781 -29.953125 2.304688 -29.625 C 2.179688 -29.460938 2.097656 -29.296875 2.097656 -29.128906 C 2.058594 -28.925781 2.097656 -28.71875 2.179688 -28.554688 Z M 9.132812 -9.339844"/></g><g id="g"><path d="M 18.804688 0 L 21.148438 0 C 21.519531 0 21.847656 -0.125 22.09375 -0.453125 C 22.339844 -0.78125 22.382812 -1.109375 22.300781 -1.523438 C 22.09375 -2.222656 21.929688 -2.757812 21.847656 -3.167969 C 21.765625 -3.539062 21.683594 -3.867188 21.601562 -4.195312 C 21.519531 -4.484375 21.394531 -4.8125 21.3125 -5.144531 C 21.230469 -5.472656 21.066406 -5.964844 20.902344 -6.625 C 20.738281 -7.28125 20.488281 -8.148438 20.203125 -9.214844 C 19.914062 -10.285156 19.542969 -11.683594 19.089844 -13.453125 C 18.597656 -15.183594 18.023438 -17.363281 17.320312 -19.957031 C 16.621094 -22.507812 15.800781 -25.632812 14.851562 -29.253906 C 14.769531 -29.5 14.648438 -29.746094 14.441406 -29.914062 C 14.195312 -30.078125 13.949219 -30.160156 13.703125 -30.160156 L 10.738281 -30.160156 C 10.449219 -30.160156 10.203125 -30.078125 10 -29.914062 C 9.75 -29.746094 9.628906 -29.5 9.585938 -29.253906 C 9.339844 -28.472656 9.050781 -27.402344 8.679688 -26.003906 C 8.3125 -24.605469 7.898438 -23.082031 7.445312 -21.355469 C 6.996094 -19.625 6.5 -17.816406 6.007812 -15.921875 C 5.511719 -14.03125 5.019531 -12.179688 4.527344 -10.367188 C 4.03125 -8.558594 3.578125 -6.914062 3.167969 -5.347656 C 2.757812 -3.785156 2.386719 -2.511719 2.140625 -1.523438 C 2.015625 -1.109375 2.097656 -0.78125 2.34375 -0.453125 C 2.59375 -0.125 2.878906 0 3.292969 0 L 5.636719 0 C 6.214844 0 6.582031 -0.289062 6.789062 -0.90625 C 6.914062 -1.316406 7.035156 -1.851562 7.199219 -2.46875 C 7.363281 -3.042969 7.53125 -3.746094 7.734375 -4.484375 C 7.898438 -5.0625 8.3125 -5.390625 8.929688 -5.390625 L 15.511719 -5.390625 C 16.085938 -5.390625 16.5 -5.0625 16.703125 -4.484375 C 16.953125 -3.496094 17.117188 -2.757812 17.28125 -2.179688 C 17.445312 -1.605469 17.570312 -1.191406 17.652344 -0.90625 C 17.816406 -0.289062 18.226562 0 18.804688 0 Z M 9.628906 -11.5625 C 9.875 -12.425781 10.082031 -13.289062 10.328125 -14.195312 C 10.574219 -15.058594 10.820312 -15.921875 11.066406 -16.828125 C 11.148438 -17.117188 11.273438 -17.320312 11.519531 -17.488281 C 11.726562 -17.652344 11.972656 -17.734375 12.21875 -17.734375 C 12.46875 -17.734375 12.671875 -17.652344 12.917969 -17.488281 C 13.125 -17.320312 13.289062 -17.117188 13.371094 -16.828125 C 13.617188 -15.839844 13.867188 -14.894531 14.113281 -14.03125 C 14.359375 -13.125 14.566406 -12.300781 14.8125 -11.5625 C 14.894531 -11.148438 14.851562 -10.820312 14.605469 -10.492188 C 14.359375 -10.164062 14.03125 -10.039062 13.660156 -10.039062 L 10.78125 -10.039062 C 10.367188 -10.039062 10.082031 -10.164062 9.832031 -10.492188 C 9.585938 -10.820312 9.503906 -11.148438 9.628906 -11.5625 Z M 9.628906 -11.5625"/></g><g id="h"><path d="M 6.707031 -30.160156 L 3.25 -30.160156 C 2.921875 -30.160156 2.632812 -30.035156 2.386719 -29.789062 C 2.140625 -29.542969 2.058594 -29.296875 2.058594 -28.964844 L 2.058594 -1.191406 C 2.058594 -0.863281 2.140625 -0.574219 2.386719 -0.328125 C 2.632812 -0.0820312 2.921875 0 3.25 0 L 6.707031 0 C 8.929688 0 10.902344 -0.371094 12.714844 -1.191406 C 14.484375 -1.976562 16.003906 -3.042969 17.238281 -4.445312 C 18.472656 -5.800781 19.460938 -7.40625 20.121094 -9.214844 C 20.777344 -11.027344 21.148438 -13 21.148438 -15.101562 C 21.148438 -17.15625 20.777344 -19.132812 20.121094 -20.941406 C 19.460938 -22.753906 18.472656 -24.359375 17.238281 -25.714844 C 16.003906 -27.074219 14.484375 -28.144531 12.714844 -28.964844 C 10.902344 -29.746094 8.929688 -30.160156 6.707031 -30.160156 Z M 6.707031 -5.925781 L 6.707031 -24.277344 C 6.707031 -24.605469 6.828125 -24.933594 7.078125 -25.179688 C 7.324219 -25.425781 7.652344 -25.511719 8.0625 -25.46875 C 9.382812 -25.304688 10.53125 -24.894531 11.5625 -24.316406 C 12.550781 -23.699219 13.414062 -22.917969 14.113281 -22.011719 C 14.769531 -21.105469 15.304688 -20.039062 15.636719 -18.84375 C 15.964844 -17.652344 16.171875 -16.417969 16.171875 -15.101562 C 16.171875 -13.785156 15.964844 -12.507812 15.636719 -11.316406 C 15.304688 -10.121094 14.769531 -9.050781 14.113281 -8.148438 C 13.414062 -7.242188 12.550781 -6.460938 11.5625 -5.882812 C 10.53125 -5.265625 9.382812 -4.894531 8.0625 -4.730469 C 7.652344 -4.648438 7.324219 -4.730469 7.078125 -4.980469 C 6.828125 -5.226562 6.707031 -5.511719 6.707031 -5.925781 Z M 6.707031 -5.925781"/></g><g id="i"><path d="M 21.105469 -30.160156 L 18.804688 -30.160156 C 18.1875 -30.160156 17.773438 -29.832031 17.609375 -29.253906 C 17.445312 -28.679688 17.28125 -27.980469 17.035156 -27.074219 C 16.789062 -26.167969 16.5 -25.140625 16.210938 -24.027344 C 15.882812 -22.875 15.59375 -21.722656 15.265625 -20.488281 C 14.9375 -19.257812 14.605469 -18.0625 14.277344 -16.910156 C 13.949219 -15.71875 13.660156 -14.605469 13.371094 -13.578125 C 13.085938 -12.507812 12.835938 -11.644531 12.671875 -10.902344 C 12.589844 -10.617188 12.425781 -10.492188 12.179688 -10.492188 C 11.890625 -10.492188 11.726562 -10.617188 11.644531 -10.902344 C 11.316406 -11.972656 10.945312 -13.414062 10.492188 -15.183594 C 10.039062 -16.910156 9.585938 -18.722656 9.09375 -20.53125 C 8.597656 -22.339844 8.105469 -24.070312 7.695312 -25.675781 C 7.28125 -27.238281 6.953125 -28.429688 6.746094 -29.253906 C 6.542969 -29.832031 6.128906 -30.160156 5.554688 -30.160156 L 3.25 -30.160156 C 2.839844 -30.160156 2.550781 -29.996094 2.304688 -29.664062 C 2.058594 -29.378906 2.015625 -29.046875 2.097656 -28.636719 C 2.34375 -27.609375 2.714844 -26.332031 3.128906 -24.769531 C 3.539062 -23.207031 3.992188 -21.558594 4.484375 -19.75 C 4.980469 -17.9375 5.472656 -16.085938 5.964844 -14.195312 C 6.460938 -12.300781 6.953125 -10.492188 7.40625 -8.765625 C 7.859375 -7.035156 8.269531 -5.511719 8.679688 -4.113281 C 9.050781 -2.714844 9.339844 -1.644531 9.546875 -0.90625 C 9.585938 -0.617188 9.710938 -0.410156 9.957031 -0.246094 C 10.164062 -0.0820312 10.410156 0 10.699219 0 L 13.660156 0 C 13.90625 0 14.152344 -0.0820312 14.402344 -0.246094 C 14.605469 -0.410156 14.730469 -0.617188 14.8125 -0.90625 C 15.757812 -4.527344 16.582031 -7.613281 17.28125 -10.203125 C 17.980469 -12.753906 18.554688 -14.9375 19.050781 -16.703125 C 19.503906 -18.433594 19.871094 -19.871094 20.160156 -20.941406 C 20.449219 -22.011719 20.695312 -22.835938 20.859375 -23.492188 C 21.023438 -24.152344 21.191406 -24.644531 21.273438 -24.976562 C 21.355469 -25.304688 21.476562 -25.632812 21.558594 -25.960938 C 21.640625 -26.25 21.722656 -26.578125 21.808594 -26.992188 C 21.890625 -27.363281 22.054688 -27.894531 22.257812 -28.636719 C 22.339844 -29.007812 22.257812 -29.335938 22.054688 -29.664062 C 21.808594 -29.996094 21.476562 -30.160156 21.105469 -30.160156 Z M 21.105469 -30.160156"/></g><g id="j"><path d="M 11.109375 -15.800781 L 20.242188 -28.226562 C 20.53125 -28.597656 20.574219 -29.007812 20.367188 -29.5 C 20.121094 -29.914062 19.789062 -30.160156 19.296875 -30.160156 L 16.539062 -30.160156 C 16.128906 -30.160156 15.800781 -29.996094 15.554688 -29.664062 L 7.324219 -18.472656 C 7.242188 -18.308594 7.117188 -18.269531 6.953125 -18.351562 C 6.789062 -18.351562 6.707031 -18.472656 6.707031 -18.679688 L 6.707031 -28.925781 C 6.707031 -29.253906 6.582031 -29.542969 6.335938 -29.789062 C 6.089844 -30.035156 5.800781 -30.160156 5.472656 -30.160156 L 3.292969 -30.160156 C 2.921875 -30.160156 2.632812 -30.035156 2.386719 -29.789062 C 2.140625 -29.542969 2.058594 -29.253906 2.058594 -28.925781 L 2.058594 -1.234375 C 2.058594 -0.863281 2.140625 -0.574219 2.386719 -0.328125 C 2.632812 -0.0820312 2.921875 0 3.292969 0 L 5.472656 0 C 5.800781 0 6.089844 -0.0820312 6.335938 -0.328125 C 6.582031 -0.574219 6.707031 -0.863281 6.707031 -1.234375 L 6.707031 -9.667969 C 6.707031 -9.75 6.707031 -9.832031 6.746094 -9.875 L 7.445312 -10.78125 C 7.488281 -10.863281 7.570312 -10.945312 7.695312 -10.945312 C 7.777344 -10.945312 7.859375 -10.863281 7.980469 -10.78125 L 15.554688 -0.492188 C 15.800781 -0.164062 16.128906 0 16.539062 0 L 19.296875 0 C 19.789062 0 20.121094 -0.207031 20.367188 -0.660156 C 20.574219 -1.109375 20.53125 -1.523438 20.242188 -1.933594 L 11.109375 -14.359375 C 10.945312 -14.566406 10.902344 -14.8125 10.902344 -15.058594 C 10.902344 -15.304688 10.945312 -15.554688 11.109375 -15.800781 Z M 11.109375 -15.800781"/></g><g id="k"><path d="M 9.421875 -30.160156 C 6.996094 -30.160156 5.183594 -29.5 3.992188 -28.226562 C 2.757812 -26.910156 2.179688 -25.097656 2.179688 -22.753906 C 2.179688 -21.890625 2.261719 -21.105469 2.425781 -20.367188 C 2.59375 -19.625 2.921875 -18.886719 3.332031 -18.144531 C 3.746094 -17.40625 4.320312 -16.664062 5.019531 -15.921875 C 5.679688 -15.183594 6.542969 -14.359375 7.570312 -13.535156 C 8.351562 -12.878906 9.011719 -12.261719 9.546875 -11.683594 C 10.082031 -11.109375 10.53125 -10.617188 10.863281 -10.121094 C 11.191406 -9.628906 11.398438 -9.132812 11.5625 -8.640625 C 11.683594 -8.148438 11.765625 -7.613281 11.765625 -7.117188 C 11.765625 -6.046875 11.519531 -5.308594 11.066406 -4.894531 C 10.617188 -4.445312 10 -4.238281 9.214844 -4.238281 C 8.394531 -4.238281 7.777344 -4.445312 7.363281 -4.894531 C 6.914062 -5.308594 6.707031 -6.046875 6.707031 -7.117188 L 6.707031 -8.3125 C 6.707031 -8.558594 6.582031 -8.765625 6.417969 -8.929688 C 6.214844 -9.09375 6.007812 -9.214844 5.761719 -9.214844 L 2.960938 -9.214844 C 2.714844 -9.214844 2.46875 -9.09375 2.304688 -8.929688 C 2.140625 -8.765625 2.058594 -8.558594 2.058594 -8.3125 L 2.058594 -7.40625 C 2.058594 -5.019531 2.675781 -3.167969 3.910156 -1.894531 C 5.144531 -0.617188 6.953125 0 9.382812 0 C 11.765625 0 13.578125 -0.617188 14.8125 -1.894531 C 16.046875 -3.167969 16.664062 -5.019531 16.664062 -7.40625 C 16.664062 -8.230469 16.539062 -9.050781 16.375 -9.792969 C 16.210938 -10.53125 15.921875 -11.234375 15.511719 -11.972656 C 15.101562 -12.714844 14.523438 -13.453125 13.824219 -14.195312 C 13.125 -14.9375 12.261719 -15.757812 11.273438 -16.621094 C 10.449219 -17.28125 9.792969 -17.855469 9.257812 -18.433594 C 8.722656 -19.007812 8.3125 -19.542969 7.980469 -20.039062 C 7.652344 -20.53125 7.40625 -20.984375 7.28125 -21.476562 C 7.117188 -21.972656 7.078125 -22.464844 7.078125 -23.042969 C 7.078125 -24.070312 7.28125 -24.808594 7.695312 -25.261719 C 8.105469 -25.714844 8.722656 -25.960938 9.546875 -25.960938 C 10.328125 -25.960938 10.945312 -25.714844 11.355469 -25.261719 C 11.765625 -24.808594 11.972656 -24.070312 11.972656 -23.042969 L 11.972656 -22.753906 C 11.972656 -22.464844 12.054688 -22.21875 12.21875 -22.054688 C 12.382812 -21.890625 12.632812 -21.808594 12.917969 -21.808594 L 15.675781 -21.808594 C 15.921875 -21.808594 16.171875 -21.890625 16.335938 -22.054688 C 16.5 -22.21875 16.621094 -22.464844 16.621094 -22.753906 C 16.621094 -25.097656 16.003906 -26.910156 14.8125 -28.226562 C 13.578125 -29.5 11.808594 -30.160156 9.421875 -30.160156 Z M 9.421875 -30.160156"/></g><clipPath id="a"><path d="M 0 7.671875 L 375 7.671875 L 375 217.328125 L 0 217.328125 Z M 0 7.671875"/></clipPath></defs><g clip-path="url(#a)"><path fill="#00264D" d="M 253.585938 145.15625 C 257.847656 145.054688 261.375 148.386719 261.507812 152.652344 C 261.507812 153.152344 261.472656 153.683594 261.375 154.183594 L 260.109375 161.316406 L 258.078125 193.171875 C 257.746094 198.371094 253.453125 202.433594 248.222656 202.433594 L 214.964844 202.433594 L 217.796875 196.804688 L 226.183594 191.570312 C 227.015625 191.039062 227.617188 190.171875 227.816406 189.207031 L 234.375 159.648438 C 235.105469 156.351562 234.207031 152.851562 231.945312 150.320312 L 229.148438 147.253906 C 237.070312 146.886719 244.960938 146.222656 252.820312 145.222656 C 253.085938 145.15625 253.316406 145.121094 253.585938 145.121094 Z M 324.230469 134.492188 C 327.992188 148.886719 334.683594 162.347656 343.9375 174.042969 C 347 177.875 350.996094 180.84375 355.589844 182.609375 C 361.015625 184.707031 366.011719 187.804688 370.339844 191.703125 C 345.535156 190.238281 323.398438 175.675781 312.246094 153.453125 C 318.238281 148.621094 322.433594 141.957031 324.230469 134.492188 Z M 106.933594 128.859375 C 117.785156 136.160156 130.304688 140.492188 143.320312 141.488281 L 139.824219 154.21875 C 139.394531 155.75 138.761719 157.183594 137.863281 158.484375 C 136.332031 160.882812 135.296875 163.546875 134.933594 166.347656 L 130.703125 196.46875 C 130.4375 198.269531 129.472656 199.867188 127.972656 200.902344 C 126.675781 201.800781 125.210938 202.46875 123.679688 202.835938 L 95.082031 202.835938 L 98.210938 197.101562 C 100.972656 196.503906 103.4375 195.003906 105.234375 192.839844 C 105.636719 192.371094 105.867188 191.839844 106 191.238281 C 107.167969 185.875 108.097656 180.441406 108.832031 174.976562 C 109.5625 169.078125 109.464844 163.082031 108.5 157.21875 C 106.96875 147.855469 106.433594 138.324219 106.933594 128.859375 Z M 89.722656 11.769531 C 91.386719 11.769531 93.015625 12.4375 94.25 13.601562 C 106.734375 25.867188 110.730469 44.390625 104.371094 60.71875 C 103.273438 63.519531 104.667969 66.652344 107.464844 67.75 C 108.464844 68.148438 109.5625 68.214844 110.628906 67.984375 L 121.414062 65.550781 C 122.414062 65.351562 123.3125 64.851562 124.046875 64.117188 C 137.730469 50.65625 153.742188 39.792969 171.320312 32.0625 C 202.414062 16.101562 239.601562 17.769531 269.132812 36.429688 C 304.554688 52.222656 325.59375 89.207031 321.101562 127.726562 C 320.667969 136.792969 316.304688 145.1875 309.148438 150.71875 C 308.117188 151.519531 307.652344 152.820312 307.882812 154.085938 C 308.847656 158.785156 307.949219 163.683594 305.351562 167.746094 L 302.691406 204.066406 C 302.324219 209.230469 298.027344 213.265625 292.835938 213.265625 L 260.242188 213.265625 L 262.972656 207.367188 L 271.0625 202.101562 C 271.863281 201.566406 272.425781 200.769531 272.628906 199.835938 L 279.75 170.347656 C 280.585938 166.878906 279.617188 163.25 277.222656 160.648438 L 262.441406 144.820312 C 259.84375 142.054688 256.082031 140.691406 252.351562 141.191406 C 231.679688 143.824219 210.769531 144.121094 190.03125 142.121094 C 188 141.921875 186.203125 143.390625 185.96875 145.421875 C 185.070312 153.953125 182.238281 162.183594 177.746094 169.445312 C 175.582031 172.976562 174.214844 176.945312 173.785156 181.042969 L 171.320312 204.300781 C 170.789062 209.367188 166.558594 213.164062 161.5 213.164062 L 135.929688 213.164062 L 138.5625 207.367188 L 143.722656 206.03125 C 145.152344 205.632812 146.21875 204.433594 146.417969 203 L 150.179688 178.777344 C 150.480469 176.84375 150.480469 174.878906 150.179688 172.945312 L 148.25 160.582031 C 148.117188 160.117188 147.984375 159.648438 147.914062 159.148438 L 146.984375 142.890625 L 147.316406 142.191406 C 147.847656 140.191406 146.683594 138.125 144.6875 137.589844 C 144.453125 137.523438 144.21875 137.492188 143.988281 137.457031 C 127.839844 136.324219 112.558594 129.726562 100.675781 118.765625 C 93.816406 119.199219 86.925781 118.929688 80.132812 117.933594 C 65.085938 122.796875 49.570312 125.929688 33.824219 127.296875 C 33.125 127.363281 32.460938 127.527344 31.859375 127.863281 L 19.476562 133.992188 C 15.546875 135.992188 10.753906 135.09375 7.757812 131.828125 C 5.292969 129.09375 3.863281 125.5625 3.796875 121.898438 C 3.761719 120.597656 4.128906 119.332031 4.828125 118.265625 C 6.890625 115.03125 10.453125 113.066406 14.28125 113.035156 C 15.148438 113 16.011719 112.800781 16.777344 112.402344 C 34.957031 102.671875 52.5 91.808594 69.347656 79.878906 C 71.777344 78.144531 72.375 74.746094 70.644531 72.28125 C 70.144531 71.582031 69.511719 71.015625 68.746094 70.617188 C 55.496094 63.652344 46.941406 50.15625 46.308594 35.195312 C 46.175781 31.597656 48.9375 28.597656 52.535156 28.429688 C 53.765625 28.398438 55.03125 28.699219 56.097656 29.363281 C 69.914062 37.59375 79.601562 51.222656 82.832031 66.984375 C 83.460938 69.914062 86.324219 71.78125 89.253906 71.148438 C 92.21875 70.515625 94.082031 67.648438 93.449219 64.683594 C 93.351562 64.21875 93.152344 63.71875 92.917969 63.285156 C 85.394531 49.355469 81.996094 33.5625 83.164062 17.769531 C 83.429688 14.371094 86.257812 11.738281 89.65625 11.738281 Z M 89.722656 7.671875 C 84.296875 7.804688 79.832031 12.035156 79.46875 17.46875 C 78.203125 34.027344 81.765625 50.621094 89.65625 65.25 C 90.054688 65.882812 89.820312 66.71875 89.1875 67.117188 C 88.554688 67.515625 87.691406 67.316406 87.324219 66.652344 C 87.226562 66.515625 87.15625 66.351562 87.125 66.183594 L 86.890625 66.183594 C 83.429688 49.324219 73.042969 34.695312 58.261719 25.867188 C 53.265625 22.898438 46.808594 24.53125 43.8125 29.53125 C 42.78125 31.296875 42.246094 33.328125 42.347656 35.394531 C 43.011719 51.789062 52.367188 66.617188 66.917969 74.246094 C 67.617188 74.546875 67.949219 75.347656 67.648438 76.046875 C 67.582031 76.246094 67.449219 76.445312 67.25 76.582031 C 50.570312 88.410156 33.160156 99.171875 15.148438 108.835938 C 14.949219 108.902344 14.75 108.96875 14.546875 108.96875 C 9.320312 109.035156 4.496094 111.699219 1.664062 116.097656 C 0.53125 117.832031 -0.0351562 119.898438 0 121.996094 C 0.101562 126.660156 1.898438 131.128906 5.027344 134.59375 C 9.222656 139.191406 15.980469 140.457031 21.574219 137.65625 L 33.925781 131.492188 C 34.089844 131.425781 34.257812 131.394531 34.421875 131.394531 C 50.171875 130.027344 65.71875 126.894531 80.800781 122.097656 C 86.992188 122.964844 93.25 123.261719 99.476562 122.964844 C 100.707031 124.03125 102.007812 125.097656 103.304688 126.09375 C 102.574219 136.691406 103.070312 147.386719 104.769531 157.882812 C 105.703125 163.382812 105.800781 168.980469 105.101562 174.476562 C 104.4375 179.808594 103.503906 185.109375 102.371094 190.339844 C 101.140625 191.804688 99.410156 192.804688 97.546875 193.171875 C 96.480469 193.40625 95.582031 194.105469 95.046875 195.070312 L 91.585938 201.402344 C 90.585938 203.199219 91.253906 205.464844 93.085938 206.464844 C 93.617188 206.765625 94.214844 206.933594 94.847656 206.933594 L 124.445312 206.933594 C 126.640625 206.464844 128.738281 205.566406 130.605469 204.300781 C 133.035156 202.632812 134.632812 200.003906 135.066406 197.070312 L 139.292969 166.949219 C 139.59375 164.75 140.390625 162.648438 141.625 160.78125 C 142.722656 159.082031 143.554688 157.25 144.085938 155.316406 L 144.085938 155.152344 L 144.421875 159.417969 C 144.519531 160.050781 144.621094 160.648438 144.753906 161.25 L 146.683594 173.578125 C 146.917969 175.109375 146.917969 176.644531 146.683594 178.175781 L 142.957031 202.167969 L 137.863281 203.5 C 136.796875 203.800781 135.898438 204.566406 135.429688 205.566406 L 132.566406 211.964844 C 131.703125 213.832031 132.535156 216.0625 134.433594 216.894531 C 134.898438 217.128906 135.429688 217.230469 135.964844 217.230469 L 162.03125 217.230469 C 169.15625 217.230469 175.148438 211.863281 175.914062 204.765625 L 178.34375 181.507812 C 178.746094 178.011719 179.875 174.609375 181.742188 171.613281 C 186.5 163.914062 189.464844 155.21875 190.464844 146.222656 C 201.75 147.320312 213.066406 147.722656 224.386719 147.453125 L 229.449219 153.050781 C 230.847656 154.617188 231.410156 156.75 230.980469 158.816406 L 224.453125 188.238281 L 216.132812 193.4375 C 215.566406 193.769531 215.097656 194.304688 214.800781 194.902344 L 211.636719 201.136719 C 210.703125 202.96875 211.46875 205.199219 213.300781 206.132812 C 213.832031 206.398438 214.398438 206.53125 214.964844 206.53125 L 248.789062 206.53125 C 256.148438 206.53125 262.242188 200.800781 262.707031 193.472656 L 264.738281 161.847656 L 265.9375 154.917969 C 265.96875 154.652344 265.96875 154.386719 265.9375 154.117188 L 274.65625 163.449219 C 276.15625 165.046875 276.753906 167.28125 276.222656 169.414062 L 269.164062 198.769531 L 261.109375 204 C 260.507812 204.402344 260.042969 204.96875 259.742188 205.601562 L 256.8125 212.03125 C 255.949219 213.929688 256.78125 216.128906 258.644531 216.996094 C 259.144531 217.230469 259.675781 217.363281 260.210938 217.328125 L 293.335938 217.328125 C 300.625 217.328125 306.71875 211.699219 307.25 204.402344 L 309.78125 169.046875 C 311.144531 166.679688 312.078125 164.082031 312.511719 161.382812 C 325.230469 181.675781 347 194.503906 370.90625 195.835938 C 373.070312 195.9375 374.933594 194.269531 375.066406 192.105469 C 375.132812 190.90625 374.667969 189.738281 373.800781 188.9375 C 369.039062 184.609375 363.515625 181.175781 357.488281 178.84375 C 353.59375 177.308594 350.164062 174.8125 347.566406 171.546875 C 335.949219 156.882812 328.558594 139.355469 326.160156 120.832031 C 327.527344 83.109375 305.917969 48.324219 271.496094 32.863281 C 240.832031 13.601562 202.28125 11.902344 170.023438 28.398438 C 152.042969 36.328125 135.664062 47.457031 121.648438 61.253906 C 121.480469 61.453125 121.214844 61.585938 120.984375 61.617188 L 110.164062 64.050781 C 109.429688 64.183594 108.699219 63.71875 108.566406 62.984375 C 108.5 62.71875 108.53125 62.453125 108.632812 62.21875 C 115.554688 44.359375 111.195312 24.132812 97.511719 10.738281 C 95.480469 8.738281 92.75 7.636719 89.886719 7.707031 L 89.722656 7.671875"/></g><path fill="#00264D" d="M 84.660156 91.875 C 84.695312 88.941406 82.332031 86.511719 79.402344 86.476562 C 76.472656 86.441406 74.042969 88.808594 74.007812 91.742188 C 74.007812 91.773438 74.007812 91.839844 74.007812 91.875 C 73.972656 94.808594 76.339844 97.207031 79.269531 97.238281 C 82.230469 97.273438 84.628906 94.941406 84.660156 91.972656 C 84.660156 91.941406 84.660156 91.90625 84.660156 91.875"/><path stroke-linecap="round" transform="matrix(3.40046 -1.53295 1.54116 3.41867 68.39 85.435)" fill="none" d="M 0.499927 -0.000340158 L 6.539871 -0.0000150669" stroke="#00264D"/><g fill="#00264D"><use x="150.982" y="76.54" xmlns:xlink="http://www.w3.org/1999/xlink" xlink:href="#b" xlink:type="simple" xlink:actuate="onLoad" xlink:show="embed"/></g><g fill="#00264D"><use x="175.422" y="76.54" xmlns:xlink="http://www.w3.org/1999/xlink" xlink:href="#c" xlink:type="simple" xlink:actuate="onLoad" xlink:show="embed"/></g><g fill="#00264D"><use x="198.71" y="76.54" xmlns:xlink="http://www.w3.org/1999/xlink" xlink:href="#d" xlink:type="simple" xlink:actuate="onLoad" xlink:show="embed"/></g><g fill="#00264D"><use x="228.416" y="76.54" xmlns:xlink="http://www.w3.org/1999/xlink" xlink:href="#e" xlink:type="simple" xlink:actuate="onLoad" xlink:show="embed"/></g><g fill="#00264D"><use x="249.112" y="76.54" xmlns:xlink="http://www.w3.org/1999/xlink" xlink:href="#f" xlink:type="simple" xlink:actuate="onLoad" xlink:show="embed"/></g><g fill="#00264D"><use x="109.709" y="117.79" xmlns:xlink="http://www.w3.org/1999/xlink" xlink:href="#b" xlink:type="simple" xlink:actuate="onLoad" xlink:show="embed"/></g><g fill="#00264D"><use x="134.149" y="117.79" xmlns:xlink="http://www.w3.org/1999/xlink" xlink:href="#g" xlink:type="simple" xlink:actuate="onLoad" xlink:show="embed"/></g><g fill="#00264D"><use x="158.589" y="117.79" xmlns:xlink="http://www.w3.org/1999/xlink" xlink:href="#e" xlink:type="simple" xlink:actuate="onLoad" xlink:show="embed"/></g><g fill="#00264D"><use x="179.284" y="117.79" xmlns:xlink="http://www.w3.org/1999/xlink" xlink:href="#h" xlink:type="simple" xlink:actuate="onLoad" xlink:show="embed"/></g><g fill="#00264D"><use x="202.49" y="117.79" xmlns:xlink="http://www.w3.org/1999/xlink" xlink:href="#i" xlink:type="simple" xlink:actuate="onLoad" xlink:show="embed"/></g><g fill="#00264D"><use x="226.847" y="117.79" xmlns:xlink="http://www.w3.org/1999/xlink" xlink:href="#g" xlink:type="simple" xlink:actuate="onLoad" xlink:show="embed"/></g><g fill="#00264D"><use x="251.287" y="117.79" xmlns:xlink="http://www.w3.org/1999/xlink" xlink:href="#e" xlink:type="simple" xlink:actuate="onLoad" xlink:show="embed"/></g><g fill="#00264D"><use x="271.983" y="117.79" xmlns:xlink="http://www.w3.org/1999/xlink" xlink:href="#j" xlink:type="simple" xlink:actuate="onLoad" xlink:show="embed"/></g><g fill="#00264D"><use x="294.571" y="117.79" xmlns:xlink="http://www.w3.org/1999/xlink" xlink:href="#k" xlink:type="simple" xlink:actuate="onLoad" xlink:show="embed"/></g></svg>