<svg xmlns="http://www.w3.org/2000/svg" xmlns:xlink="http://www.w3.org/1999/xlink" width="375" viewBox="0 0 375 375" height="375" version="1.0"><defs><g id="d"><path d="M -18.59375 -37.0625 L -21.5 -34.484375 L 5.125 -4.5625 L 7.015625 -6.234375 L -14.703125 -30.640625 L -14.546875 -30.796875 L 20.84375 -17.625 L 21.625 -18.3125 L 13.109375 -55.078125 L 13.28125 -55.234375 L 34.84375 -31 L 38.734375 -34.453125 L 12.109375 -64.375 L 9.15625 -61.75 L 18.171875 -23.75 L 18 -23.59375 Z M -18.59375 -37.0625"/></g><g id="e"><path d="M 20.421875 -25.53125 L 19.859375 -26.59375 C 18.671875 -28.84375 17.320312 -30.628906 15.8125 -31.953125 C 14.300781 -33.273438 12.710938 -34.1875 11.046875 -34.6875 C 9.378906 -35.1875 7.675781 -35.320312 5.9375 -35.09375 C 4.195312 -34.875 2.519531 -34.332031 0.90625 -33.46875 C -0.820312 -32.5625 -2.25 -31.425781 -3.375 -30.0625 C -4.507812 -28.707031 -5.316406 -27.179688 -5.796875 -25.484375 C -6.285156 -23.785156 -6.410156 -21.972656 -6.171875 -20.046875 C -5.941406 -18.128906 -5.289062 -16.15625 -4.21875 -14.125 C -3.332031 -12.4375 -2.203125 -10.929688 -0.828125 -9.609375 C 0.546875 -8.285156 2.09375 -7.269531 3.8125 -6.5625 C 5.539062 -5.863281 7.425781 -5.566406 9.46875 -5.671875 C 11.507812 -5.773438 13.640625 -6.410156 15.859375 -7.578125 C 18.023438 -8.722656 19.816406 -10.15625 21.234375 -11.875 C 22.648438 -13.59375 23.660156 -15.519531 24.265625 -17.65625 L 21.78125 -18.421875 C 21.394531 -17.429688 21.019531 -16.519531 20.65625 -15.6875 C 20.300781 -14.851562 19.894531 -14.097656 19.4375 -13.421875 C 18.976562 -12.742188 18.453125 -12.128906 17.859375 -11.578125 C 17.265625 -11.035156 16.539062 -10.539062 15.6875 -10.09375 C 14.75 -9.601562 13.671875 -9.21875 12.453125 -8.9375 C 11.242188 -8.664062 9.988281 -8.660156 8.6875 -8.921875 C 7.382812 -9.179688 6.078125 -9.804688 4.765625 -10.796875 C 3.460938 -11.796875 2.269531 -13.328125 1.1875 -15.390625 Z M 0.125 -17.40625 C -0.582031 -18.757812 -1.125 -20.144531 -1.5 -21.5625 C -1.882812 -22.976562 -2.039062 -24.328125 -1.96875 -25.609375 C -1.894531 -26.898438 -1.554688 -28.082031 -0.953125 -29.15625 C -0.347656 -30.226562 0.578125 -31.09375 1.828125 -31.75 C 4.222656 -33.019531 6.578125 -33.070312 8.890625 -31.90625 C 11.203125 -30.738281 13.222656 -28.515625 14.953125 -25.234375 Z M 0.125 -17.40625"/></g><g id="f"><path d="M 16.375 -47.265625 L 11.75 -45.78125 L 16.65625 -30.421875 L 16.421875 -30.359375 C 15.753906 -31.191406 15.019531 -31.828125 14.21875 -32.265625 C 13.425781 -32.710938 12.582031 -33.015625 11.6875 -33.171875 C 10.800781 -33.328125 9.898438 -33.359375 8.984375 -33.265625 C 8.078125 -33.171875 7.191406 -32.984375 6.328125 -32.703125 C 4.503906 -32.117188 2.9375 -31.25 1.625 -30.09375 C 0.3125 -28.945312 -0.703125 -27.578125 -1.421875 -25.984375 C -2.140625 -24.390625 -2.523438 -22.617188 -2.578125 -20.671875 C -2.640625 -18.734375 -2.332031 -16.691406 -1.65625 -14.546875 C -0.957031 -12.367188 -0.0195312 -10.5 1.15625 -8.9375 C 2.34375 -7.375 3.691406 -6.144531 5.203125 -5.25 C 6.710938 -4.351562 8.335938 -3.804688 10.078125 -3.609375 C 11.816406 -3.421875 13.597656 -3.617188 15.421875 -4.203125 C 19.703125 -5.578125 21.992188 -8.175781 22.296875 -12 L 22.53125 -12.0625 L 23.9375 -7.640625 L 28.5625 -9.125 Z M 20.453125 -18.53125 C 20.835938 -17.34375 21 -16.144531 20.9375 -14.9375 C 20.882812 -13.738281 20.644531 -12.644531 20.21875 -11.65625 C 19.800781 -10.664062 19.203125 -9.789062 18.421875 -9.03125 C 17.640625 -8.28125 16.722656 -7.734375 15.671875 -7.390625 C 14.492188 -7.023438 13.328125 -6.890625 12.171875 -6.984375 C 11.023438 -7.078125 9.925781 -7.457031 8.875 -8.125 C 7.820312 -8.789062 6.835938 -9.773438 5.921875 -11.078125 C 5.003906 -12.390625 4.21875 -14.066406 3.5625 -16.109375 C 2.90625 -18.179688 2.570312 -20.015625 2.5625 -21.609375 C 2.550781 -23.210938 2.785156 -24.597656 3.265625 -25.765625 C 3.753906 -26.929688 4.4375 -27.890625 5.3125 -28.640625 C 6.195312 -29.390625 7.207031 -29.941406 8.34375 -30.296875 C 9.351562 -30.628906 10.378906 -30.726562 11.421875 -30.59375 C 12.460938 -30.457031 13.457031 -30.09375 14.40625 -29.5 C 15.363281 -28.914062 16.238281 -28.101562 17.03125 -27.0625 C 17.820312 -26.03125 18.457031 -24.769531 18.9375 -23.28125 Z M 20.453125 -18.53125"/></g><g id="g"><path d="M 1.359375 -29.28125 L 6.3125 -1.109375 L 11.09375 -1.953125 L 6.140625 -30.125 Z M -0.90625 -38.0625 C -0.757812 -37.238281 -0.332031 -36.578125 0.375 -36.078125 C 1.09375 -35.585938 1.863281 -35.414062 2.6875 -35.5625 C 3.519531 -35.707031 4.179688 -36.132812 4.671875 -36.84375 C 5.160156 -37.550781 5.332031 -38.316406 5.1875 -39.140625 C 5.039062 -39.960938 4.613281 -40.617188 3.90625 -41.109375 C 3.207031 -41.609375 2.441406 -41.785156 1.609375 -41.640625 C 0.785156 -41.492188 0.125 -41.066406 -0.375 -40.359375 C -0.875 -39.648438 -1.050781 -38.882812 -0.90625 -38.0625 Z M -0.90625 -38.0625"/></g><g id="h"><path d="M 6.859375 -0.203125 L 21.21875 -0.640625 C 23.769531 -0.722656 25.910156 -1.125 27.640625 -1.84375 C 29.378906 -2.5625 30.765625 -3.46875 31.796875 -4.5625 C 32.835938 -5.664062 33.570312 -6.898438 34 -8.265625 C 34.4375 -9.640625 34.632812 -11.015625 34.59375 -12.390625 C 34.53125 -14.566406 34.007812 -16.285156 33.03125 -17.546875 C 32.0625 -18.804688 30.914062 -19.757812 29.59375 -20.40625 C 28.28125 -21.0625 26.929688 -21.484375 25.546875 -21.671875 C 24.171875 -21.859375 23.066406 -21.953125 22.234375 -21.953125 L 22.21875 -22.1875 C 23.550781 -22.226562 24.800781 -22.523438 25.96875 -23.078125 C 27.132812 -23.628906 28.148438 -24.328125 29.015625 -25.171875 C 29.890625 -26.015625 30.578125 -26.988281 31.078125 -28.09375 C 31.585938 -29.207031 31.828125 -30.375 31.796875 -31.59375 C 31.753906 -32.664062 31.488281 -33.742188 31 -34.828125 C 30.507812 -35.921875 29.78125 -36.910156 28.8125 -37.796875 C 27.851562 -38.679688 26.628906 -39.394531 25.140625 -39.9375 C 23.648438 -40.488281 21.914062 -40.734375 19.9375 -40.671875 L 5.640625 -40.234375 Z M 12 -2.875 L 11.46875 -20.375 L 17.75 -20.578125 C 19.613281 -20.628906 21.238281 -20.425781 22.625 -19.96875 C 24.019531 -19.507812 25.175781 -18.875 26.09375 -18.0625 C 27.019531 -17.257812 27.71875 -16.3125 28.1875 -15.21875 C 28.65625 -14.132812 28.910156 -12.984375 28.953125 -11.765625 C 28.992188 -10.429688 28.789062 -9.238281 28.34375 -8.1875 C 27.894531 -7.144531 27.28125 -6.25 26.5 -5.5 C 25.726562 -4.75 24.800781 -4.175781 23.71875 -3.78125 C 22.644531 -3.382812 21.5 -3.171875 20.28125 -3.140625 Z M 11.390625 -22.890625 L 10.9375 -37.875 L 17.890625 -38.09375 C 19.378906 -38.132812 20.65625 -37.960938 21.71875 -37.578125 C 22.789062 -37.191406 23.671875 -36.664062 24.359375 -36 C 25.046875 -35.332031 25.550781 -34.5625 25.875 -33.6875 C 26.207031 -32.820312 26.382812 -31.953125 26.40625 -31.078125 C 26.4375 -29.972656 26.25 -28.9375 25.84375 -27.96875 C 25.4375 -27.007812 24.851562 -26.171875 24.09375 -25.453125 C 23.332031 -24.742188 22.453125 -24.179688 21.453125 -23.765625 C 20.453125 -23.359375 19.378906 -23.140625 18.234375 -23.109375 Z M 11.390625 -22.890625"/></g><g id="i"><path d="M 34.375 -8.84375 C 34.050781 -6.882812 33.40625 -5.066406 32.4375 -3.390625 C 31.46875 -1.710938 30.242188 -0.300781 28.765625 0.84375 C 27.285156 2 25.582031 2.828125 23.65625 3.328125 C 21.738281 3.828125 19.671875 3.894531 17.453125 3.53125 C 15.191406 3.164062 13.210938 2.425781 11.515625 1.3125 C 9.828125 0.207031 8.460938 -1.117188 7.421875 -2.671875 C 6.390625 -4.234375 5.671875 -5.96875 5.265625 -7.875 C 4.859375 -9.78125 4.8125 -11.691406 5.125 -13.609375 C 5.4375 -15.566406 6.085938 -17.378906 7.078125 -19.046875 C 8.066406 -20.722656 9.300781 -22.132812 10.78125 -23.28125 C 12.269531 -24.4375 13.988281 -25.269531 15.9375 -25.78125 C 17.894531 -26.289062 20.003906 -26.363281 22.265625 -26 C 24.484375 -25.632812 26.421875 -24.898438 28.078125 -23.796875 C 29.742188 -22.703125 31.09375 -21.375 32.125 -19.8125 C 33.164062 -18.25 33.878906 -16.519531 34.265625 -14.625 C 34.648438 -12.726562 34.6875 -10.800781 34.375 -8.84375 Z M 29 -9.703125 C 29.425781 -12.335938 29.488281 -14.519531 29.1875 -16.25 C 28.894531 -17.988281 28.367188 -19.378906 27.609375 -20.421875 C 26.847656 -21.472656 25.945312 -22.25 24.90625 -22.75 C 23.875 -23.257812 22.847656 -23.59375 21.828125 -23.75 C 20.804688 -23.914062 19.722656 -23.925781 18.578125 -23.78125 C 17.441406 -23.632812 16.34375 -23.1875 15.28125 -22.4375 C 14.21875 -21.6875 13.257812 -20.539062 12.40625 -19 C 11.550781 -17.457031 10.910156 -15.367188 10.484375 -12.734375 C 10.054688 -10.128906 10.003906 -7.960938 10.328125 -6.234375 C 10.648438 -4.503906 11.195312 -3.109375 11.96875 -2.046875 C 12.738281 -0.992188 13.640625 -0.222656 14.671875 0.265625 C 15.710938 0.765625 16.742188 1.097656 17.765625 1.265625 C 18.785156 1.421875 19.863281 1.429688 21 1.296875 C 22.144531 1.160156 23.242188 0.710938 24.296875 -0.046875 C 25.347656 -0.804688 26.285156 -1.953125 27.109375 -3.484375 C 27.941406 -5.023438 28.570312 -7.097656 29 -9.703125 Z M 29 -9.703125"/></g><g id="j"><path d="M 35.40625 -2.359375 C 34.726562 -0.484375 33.757812 1.179688 32.5 2.640625 C 31.238281 4.109375 29.773438 5.273438 28.109375 6.140625 C 26.441406 7.003906 24.617188 7.5 22.640625 7.625 C 20.660156 7.757812 18.613281 7.445312 16.5 6.6875 C 14.34375 5.90625 12.535156 4.816406 11.078125 3.421875 C 9.617188 2.023438 8.519531 0.460938 7.78125 -1.265625 C 7.050781 -2.992188 6.660156 -4.828125 6.609375 -6.765625 C 6.554688 -8.710938 6.863281 -10.601562 7.53125 -12.4375 C 8.195312 -14.289062 9.171875 -15.953125 10.453125 -17.421875 C 11.742188 -18.890625 13.21875 -20.050781 14.875 -20.90625 C 16.539062 -21.757812 18.382812 -22.257812 20.40625 -22.40625 C 22.425781 -22.550781 24.515625 -22.234375 26.671875 -21.453125 C 28.785156 -20.691406 30.554688 -19.613281 31.984375 -18.21875 C 33.410156 -16.832031 34.488281 -15.273438 35.21875 -13.546875 C 35.957031 -11.828125 36.335938 -9.992188 36.359375 -8.046875 C 36.390625 -6.109375 36.070312 -4.210938 35.40625 -2.359375 Z M 30.296875 -4.203125 C 31.203125 -6.703125 31.664062 -8.832031 31.6875 -10.59375 C 31.707031 -12.351562 31.441406 -13.820312 30.890625 -15 C 30.347656 -16.175781 29.613281 -17.101562 28.6875 -17.78125 C 27.757812 -18.457031 26.804688 -18.96875 25.828125 -19.3125 C 24.859375 -19.664062 23.800781 -19.878906 22.65625 -19.953125 C 21.507812 -20.023438 20.34375 -19.785156 19.15625 -19.234375 C 17.96875 -18.691406 16.8125 -17.738281 15.6875 -16.375 C 14.5625 -15.019531 13.546875 -13.09375 12.640625 -10.59375 C 11.742188 -8.113281 11.296875 -5.992188 11.296875 -4.234375 C 11.296875 -2.472656 11.578125 -1.003906 12.140625 0.171875 C 12.703125 1.359375 13.445312 2.289062 14.375 2.96875 C 15.300781 3.644531 16.25 4.160156 17.21875 4.515625 C 18.195312 4.859375 19.257812 5.066406 20.40625 5.140625 C 21.550781 5.210938 22.707031 4.972656 23.875 4.421875 C 25.050781 3.867188 26.191406 2.910156 27.296875 1.546875 C 28.398438 0.191406 29.398438 -1.722656 30.296875 -4.203125 Z M 30.296875 -4.203125"/></g><g id="k"><path d="M 28.0625 -30.078125 L 23.84375 -32.5 L 3.96875 2.265625 L 8.1875 4.6875 L 13.515625 -4.640625 L 18.09375 -5.953125 L 21.0625 12.046875 L 26.625 15.21875 L 22.90625 -7.203125 L 37.84375 -11.328125 L 34.625 -13.171875 L 15.34375 -7.828125 Z M 28.0625 -30.078125"/></g><g id="l"><path d="M 31.46875 8.859375 L 32.234375 7.9375 C 33.847656 5.957031 34.96875 4.015625 35.59375 2.109375 C 36.21875 0.203125 36.429688 -1.609375 36.234375 -3.328125 C 36.046875 -5.054688 35.507812 -6.679688 34.625 -8.203125 C 33.75 -9.722656 32.601562 -11.0625 31.1875 -12.21875 C 29.675781 -13.445312 28.070312 -14.320312 26.375 -14.84375 C 24.675781 -15.363281 22.953125 -15.515625 21.203125 -15.296875 C 19.453125 -15.078125 17.738281 -14.484375 16.0625 -13.515625 C 14.382812 -12.546875 12.820312 -11.171875 11.375 -9.390625 C 10.164062 -7.910156 9.21875 -6.28125 8.53125 -4.5 C 7.84375 -2.726562 7.507812 -0.914062 7.53125 0.9375 C 7.5625 2.800781 8.019531 4.65625 8.90625 6.5 C 9.800781 8.34375 11.21875 10.054688 13.15625 11.640625 C 15.050781 13.191406 17.066406 14.285156 19.203125 14.921875 C 21.347656 15.554688 23.519531 15.738281 25.71875 15.46875 L 25.453125 12.875 C 24.390625 12.90625 23.40625 12.921875 22.5 12.921875 C 21.601562 12.921875 20.75 12.835938 19.9375 12.671875 C 19.132812 12.503906 18.363281 12.253906 17.625 11.921875 C 16.894531 11.585938 16.160156 11.117188 15.421875 10.515625 C 14.597656 9.835938 13.820312 8.992188 13.09375 7.984375 C 12.363281 6.972656 11.863281 5.816406 11.59375 4.515625 C 11.320312 3.222656 11.390625 1.78125 11.796875 0.1875 C 12.210938 -1.40625 13.15625 -3.101562 14.625 -4.90625 Z M 16.078125 -6.671875 C 17.046875 -7.859375 18.109375 -8.898438 19.265625 -9.796875 C 20.429688 -10.703125 21.617188 -11.367188 22.828125 -11.796875 C 24.046875 -12.234375 25.265625 -12.382812 26.484375 -12.25 C 27.703125 -12.113281 28.859375 -11.597656 29.953125 -10.703125 C 32.046875 -8.992188 33.003906 -6.84375 32.828125 -4.25 C 32.660156 -1.65625 31.40625 1.070312 29.0625 3.9375 Z M 16.078125 -6.671875"/></g><g id="m"><path d="M 24.140625 -16 L 3.09375 3.375 L 6.390625 6.9375 L 19.109375 -4.765625 C 20.253906 -5.828125 21.347656 -6.585938 22.390625 -7.046875 C 23.441406 -7.515625 24.414062 -7.769531 25.3125 -7.8125 C 26.207031 -7.863281 27 -7.738281 27.6875 -7.4375 C 28.375 -7.132812 28.9375 -6.742188 29.375 -6.265625 C 29.96875 -5.628906 30.304688 -4.835938 30.390625 -3.890625 C 30.472656 -2.953125 30.445312 -2.191406 30.3125 -1.609375 L 34.234375 -2.59375 C 34.347656 -3.15625 34.351562 -3.710938 34.25 -4.265625 C 34.144531 -4.816406 33.992188 -5.328125 33.796875 -5.796875 C 33.609375 -6.273438 33.398438 -6.675781 33.171875 -7 C 32.941406 -7.332031 32.765625 -7.570312 32.640625 -7.71875 C 31.546875 -8.894531 30.316406 -9.578125 28.953125 -9.765625 C 27.585938 -9.960938 26.039062 -9.734375 24.3125 -9.078125 L 24.078125 -9.34375 L 27.4375 -12.4375 Z M 24.140625 -16"/></g><g id="n"><path d="M 11.703125 -2.015625 L 19.71875 7.203125 L 12.0625 13.859375 L 13.796875 15.859375 L 29.1875 2.46875 L 27.453125 0.46875 L 20.71875 6.3125 L 12.703125 -2.90625 L 19.4375 -8.75 L 17.6875 -10.75 L 2.296875 2.640625 L 4.046875 4.640625 Z M 11.703125 -2.015625"/></g><g id="o"><path d="M 15.8125 5.234375 L 16.234375 4.765625 C 17.097656 3.796875 17.707031 2.832031 18.0625 1.875 C 18.425781 0.914062 18.578125 0 18.515625 -0.875 C 18.460938 -1.757812 18.226562 -2.597656 17.8125 -3.390625 C 17.394531 -4.191406 16.84375 -4.898438 16.15625 -5.515625 C 15.40625 -6.179688 14.601562 -6.660156 13.75 -6.953125 C 12.90625 -7.253906 12.03125 -7.367188 11.125 -7.296875 C 10.226562 -7.222656 9.34375 -6.957031 8.46875 -6.5 C 7.59375 -6.050781 6.769531 -5.394531 6 -4.53125 C 5.351562 -3.8125 4.835938 -3.003906 4.453125 -2.109375 C 4.066406 -1.222656 3.859375 -0.304688 3.828125 0.640625 C 3.796875 1.597656 3.984375 2.550781 4.390625 3.5 C 4.804688 4.457031 5.488281 5.363281 6.4375 6.21875 C 7.363281 7.039062 8.363281 7.640625 9.4375 8.015625 C 10.519531 8.398438 11.617188 8.546875 12.734375 8.453125 L 12.671875 7.140625 C 12.140625 7.128906 11.640625 7.113281 11.171875 7.09375 C 10.703125 7.070312 10.265625 7.007812 9.859375 6.90625 C 9.460938 6.800781 9.078125 6.65625 8.703125 6.46875 C 8.335938 6.28125 7.972656 6.023438 7.609375 5.703125 C 7.203125 5.335938 6.828125 4.890625 6.484375 4.359375 C 6.140625 3.828125 5.914062 3.226562 5.8125 2.5625 C 5.707031 1.894531 5.773438 1.160156 6.015625 0.359375 C 6.265625 -0.441406 6.78125 -1.28125 7.5625 -2.15625 Z M 8.34375 -3.03125 C 8.863281 -3.613281 9.425781 -4.117188 10.03125 -4.546875 C 10.632812 -4.984375 11.25 -5.296875 11.875 -5.484375 C 12.507812 -5.679688 13.132812 -5.726562 13.75 -5.625 C 14.363281 -5.53125 14.945312 -5.242188 15.5 -4.765625 C 16.519531 -3.847656 16.957031 -2.734375 16.8125 -1.421875 C 16.664062 -0.109375 15.960938 1.25 14.703125 2.65625 Z M 8.34375 -3.03125"/></g><g id="p"><path d="M 15.015625 -7.484375 C 16.160156 -6.648438 16.925781 -5.84375 17.3125 -5.0625 C 17.707031 -4.28125 17.859375 -3.523438 17.765625 -2.796875 C 17.679688 -2.066406 17.414062 -1.347656 16.96875 -0.640625 C 16.519531 0.0664062 16.035156 0.773438 15.515625 1.484375 L 10.828125 7.90625 L 8.921875 6.515625 L 9.765625 5.375 C 8.984375 5.476562 8.144531 5.398438 7.25 5.140625 C 6.351562 4.878906 5.554688 4.492188 4.859375 3.984375 C 4.179688 3.484375 3.671875 2.925781 3.328125 2.3125 C 2.984375 1.707031 2.773438 1.085938 2.703125 0.453125 C 2.640625 -0.171875 2.691406 -0.78125 2.859375 -1.375 C 3.035156 -1.976562 3.300781 -2.519531 3.65625 -3 C 4.019531 -3.507812 4.476562 -3.945312 5.03125 -4.3125 C 5.582031 -4.675781 6.191406 -4.921875 6.859375 -5.046875 C 7.535156 -5.171875 8.238281 -5.15625 8.96875 -5 C 9.695312 -4.84375 10.414062 -4.507812 11.125 -4 C 11.832031 -3.476562 12.40625 -2.847656 12.84375 -2.109375 C 13.28125 -1.378906 13.515625 -0.613281 13.546875 0.1875 L 14.296875 -0.828125 C 15.234375 -2.109375 15.738281 -3.203125 15.8125 -4.109375 C 15.882812 -5.015625 15.410156 -5.84375 14.390625 -6.59375 C 13.953125 -6.914062 13.523438 -7.140625 13.109375 -7.265625 C 12.703125 -7.398438 12.296875 -7.460938 11.890625 -7.453125 C 11.492188 -7.453125 11.082031 -7.382812 10.65625 -7.25 C 10.226562 -7.125 9.769531 -6.960938 9.28125 -6.765625 L 8.953125 -8.875 C 9.335938 -8.957031 9.738281 -9.023438 10.15625 -9.078125 C 10.570312 -9.128906 11.023438 -9.117188 11.515625 -9.046875 C 12.015625 -8.984375 12.550781 -8.832031 13.125 -8.59375 C 13.695312 -8.351562 14.328125 -7.984375 15.015625 -7.484375 Z M 12.328125 1.859375 C 12.378906 1.617188 12.421875 1.316406 12.453125 0.953125 C 12.492188 0.585938 12.484375 0.203125 12.421875 -0.203125 C 12.359375 -0.609375 12.222656 -1.015625 12.015625 -1.421875 C 11.804688 -1.828125 11.476562 -2.195312 11.03125 -2.53125 C 10.570312 -2.863281 10.085938 -3.078125 9.578125 -3.171875 C 9.066406 -3.265625 8.578125 -3.257812 8.109375 -3.15625 C 7.640625 -3.050781 7.1875 -2.851562 6.75 -2.5625 C 6.320312 -2.269531 5.957031 -1.914062 5.65625 -1.5 C 5.28125 -0.988281 5.046875 -0.488281 4.953125 0 C 4.867188 0.5 4.867188 0.984375 4.953125 1.453125 C 5.046875 1.921875 5.222656 2.34375 5.484375 2.71875 C 5.742188 3.09375 6.03125 3.394531 6.34375 3.625 C 6.644531 3.84375 6.988281 4.007812 7.375 4.125 C 7.757812 4.238281 8.160156 4.296875 8.578125 4.296875 C 8.992188 4.304688 9.40625 4.253906 9.8125 4.140625 C 10.226562 4.035156 10.625 3.878906 11 3.671875 Z M 12.328125 1.859375"/></g><g id="q"><path d="M 15.40625 -14.4375 L 13.3125 -15.75 L 2.46875 1.546875 L 4.5625 2.859375 Z M 15.40625 -14.4375"/></g><g id="r"><path d="M 7.234375 -11.328125 L 7.796875 -12.34375 L 10.015625 -11.125 L 12.1875 -15.0625 L 14.359375 -13.859375 L 12.1875 -9.921875 L 15.28125 -8.21875 L 14.71875 -7.203125 L 11.625 -8.90625 L 6.953125 -0.421875 C 6.835938 -0.210938 6.71875 0.0234375 6.59375 0.296875 C 6.476562 0.566406 6.394531 0.835938 6.34375 1.109375 C 6.289062 1.378906 6.316406 1.640625 6.421875 1.890625 C 6.523438 2.148438 6.734375 2.367188 7.046875 2.546875 C 7.460938 2.765625 7.890625 2.796875 8.328125 2.640625 C 8.765625 2.492188 9.164062 2.285156 9.53125 2.015625 L 10.0625 3.90625 C 8.757812 4.28125 7.585938 4.179688 6.546875 3.609375 C 6.097656 3.359375 5.703125 3.035156 5.359375 2.640625 C 5.015625 2.253906 4.765625 1.8125 4.609375 1.3125 C 4.453125 0.820312 4.40625 0.273438 4.46875 -0.328125 C 4.539062 -0.941406 4.757812 -1.582031 5.125 -2.25 L 9.453125 -10.109375 Z M 7.234375 -11.328125"/></g><g id="s"><path d="M 10.46875 -17.671875 L 2.125 0.953125 L 4.390625 1.96875 L 7.828125 -5.71875 C 7.992188 -6.082031 8.21875 -6.507812 8.5 -7 C 8.78125 -7.488281 9.144531 -7.914062 9.59375 -8.28125 C 10.050781 -8.65625 10.597656 -8.90625 11.234375 -9.03125 C 11.867188 -9.164062 12.613281 -9.039062 13.46875 -8.65625 C 14.070312 -8.382812 14.503906 -8.054688 14.765625 -7.671875 C 15.035156 -7.296875 15.179688 -6.875 15.203125 -6.40625 C 15.234375 -5.945312 15.164062 -5.457031 15 -4.9375 C 14.84375 -4.414062 14.644531 -3.890625 14.40625 -3.359375 L 10.75 4.8125 L 13 5.828125 L 16.9375 -2.953125 C 17.375 -3.941406 17.59375 -4.8125 17.59375 -5.5625 C 17.601562 -6.320312 17.472656 -6.972656 17.203125 -7.515625 C 16.929688 -8.066406 16.570312 -8.519531 16.125 -8.875 C 15.6875 -9.226562 15.234375 -9.515625 14.765625 -9.734375 C 14.148438 -10.003906 13.441406 -10.171875 12.640625 -10.234375 C 11.847656 -10.296875 11.003906 -10.125 10.109375 -9.71875 L 9.625 -9.484375 L 9.53125 -9.53125 L 12.734375 -16.65625 Z M 10.46875 -17.671875"/></g><g id="t"><path d="M 9.53125 1.953125 C 8.863281 1.734375 8.253906 1.414062 7.703125 1 C 7.148438 0.59375 6.707031 0.0859375 6.375 -0.515625 C 6.050781 -1.128906 5.875 -1.851562 5.84375 -2.6875 C 5.8125 -3.53125 5.976562 -4.5 6.34375 -5.59375 C 6.71875 -6.71875 7.191406 -7.617188 7.765625 -8.296875 C 8.335938 -8.984375 8.9375 -9.484375 9.5625 -9.796875 C 10.195312 -10.109375 10.832031 -10.269531 11.46875 -10.28125 C 12.113281 -10.300781 12.691406 -10.222656 13.203125 -10.046875 C 14.054688 -9.765625 14.722656 -9.296875 15.203125 -8.640625 C 15.679688 -7.992188 15.910156 -7.3125 15.890625 -6.59375 L 17.796875 -5.953125 C 17.828125 -6.679688 17.710938 -7.328125 17.453125 -7.890625 C 17.203125 -8.460938 16.859375 -8.972656 16.421875 -9.421875 C 15.984375 -9.867188 15.484375 -10.242188 14.921875 -10.546875 C 14.359375 -10.859375 13.800781 -11.101562 13.25 -11.28125 C 12.082031 -11.675781 10.992188 -11.832031 9.984375 -11.75 C 8.984375 -11.664062 8.066406 -11.398438 7.234375 -10.953125 C 6.410156 -10.503906 5.695312 -9.894531 5.09375 -9.125 C 4.5 -8.363281 4.039062 -7.5 3.71875 -6.53125 C 3.375 -5.5 3.21875 -4.476562 3.25 -3.46875 C 3.28125 -2.46875 3.492188 -1.535156 3.890625 -0.671875 C 4.285156 0.191406 4.851562 0.953125 5.59375 1.609375 C 6.34375 2.273438 7.257812 2.789062 8.34375 3.15625 C 9.5625 3.5625 10.691406 3.710938 11.734375 3.609375 C 12.785156 3.515625 13.703125 3.335938 14.484375 3.078125 L 14.046875 1.75 C 13.222656 2.0625 12.453125 2.234375 11.734375 2.265625 C 11.015625 2.304688 10.28125 2.203125 9.53125 1.953125 Z M 9.53125 1.953125"/></g><g id="u"><path d="M 10.875 -12.78125 C 12.257812 -12.457031 13.28125 -12.007812 13.9375 -11.4375 C 14.601562 -10.875 15.035156 -10.238281 15.234375 -9.53125 C 15.441406 -8.820312 15.476562 -8.054688 15.34375 -7.234375 C 15.21875 -6.410156 15.054688 -5.570312 14.859375 -4.71875 L 13.0625 3.03125 L 10.765625 2.5 L 11.09375 1.109375 C 10.414062 1.515625 9.613281 1.769531 8.6875 1.875 C 7.757812 1.988281 6.875 1.945312 6.03125 1.75 C 5.21875 1.5625 4.53125 1.253906 3.96875 0.828125 C 3.414062 0.398438 2.984375 -0.0859375 2.671875 -0.640625 C 2.359375 -1.191406 2.160156 -1.773438 2.078125 -2.390625 C 2.003906 -3.003906 2.035156 -3.601562 2.171875 -4.1875 C 2.316406 -4.800781 2.570312 -5.382812 2.9375 -5.9375 C 3.300781 -6.488281 3.765625 -6.953125 4.328125 -7.328125 C 4.898438 -7.703125 5.550781 -7.960938 6.28125 -8.109375 C 7.019531 -8.265625 7.816406 -8.242188 8.671875 -8.046875 C 9.523438 -7.847656 10.296875 -7.492188 10.984375 -6.984375 C 11.671875 -6.472656 12.191406 -5.859375 12.546875 -5.140625 L 12.828125 -6.359375 C 13.179688 -7.910156 13.210938 -9.117188 12.921875 -9.984375 C 12.640625 -10.847656 11.878906 -11.421875 10.640625 -11.703125 C 10.117188 -11.828125 9.644531 -11.867188 9.21875 -11.828125 C 8.789062 -11.796875 8.390625 -11.695312 8.015625 -11.53125 C 7.648438 -11.375 7.296875 -11.148438 6.953125 -10.859375 C 6.609375 -10.566406 6.25 -10.234375 5.875 -9.859375 L 4.75 -11.671875 C 5.082031 -11.898438 5.425781 -12.117188 5.78125 -12.328125 C 6.144531 -12.546875 6.5625 -12.71875 7.03125 -12.84375 C 7.507812 -12.976562 8.0625 -13.046875 8.6875 -13.046875 C 9.3125 -13.054688 10.039062 -12.96875 10.875 -12.78125 Z M 12.0625 -3.109375 C 12.03125 -3.367188 11.957031 -3.671875 11.84375 -4.015625 C 11.726562 -4.359375 11.5625 -4.707031 11.34375 -5.0625 C 11.125 -5.414062 10.835938 -5.738281 10.484375 -6.03125 C 10.140625 -6.320312 9.695312 -6.53125 9.15625 -6.65625 C 8.601562 -6.78125 8.070312 -6.785156 7.5625 -6.671875 C 7.050781 -6.554688 6.597656 -6.359375 6.203125 -6.078125 C 5.816406 -5.804688 5.484375 -5.453125 5.203125 -5.015625 C 4.921875 -4.578125 4.722656 -4.101562 4.609375 -3.59375 C 4.460938 -2.988281 4.445312 -2.4375 4.5625 -1.9375 C 4.6875 -1.445312 4.878906 -1.003906 5.140625 -0.609375 C 5.410156 -0.222656 5.734375 0.09375 6.109375 0.34375 C 6.492188 0.59375 6.878906 0.757812 7.265625 0.84375 C 7.617188 0.925781 7.992188 0.945312 8.390625 0.90625 C 8.796875 0.863281 9.1875 0.757812 9.5625 0.59375 C 9.945312 0.425781 10.3125 0.21875 10.65625 -0.03125 C 11 -0.289062 11.300781 -0.59375 11.5625 -0.9375 Z M 12.0625 -3.109375"/></g><g id="v"><path d="M 4.4375 -14.078125 L 2.296875 0.34375 L 4.765625 0.703125 L 6.0625 -8.015625 C 6.175781 -8.796875 6.363281 -9.445312 6.625 -9.96875 C 6.882812 -10.488281 7.1875 -10.898438 7.53125 -11.203125 C 7.875 -11.503906 8.226562 -11.703125 8.59375 -11.796875 C 8.957031 -11.898438 9.304688 -11.929688 9.640625 -11.890625 C 10.078125 -11.816406 10.460938 -11.609375 10.796875 -11.265625 C 11.128906 -10.921875 11.363281 -10.613281 11.5 -10.34375 L 12.734375 -11.984375 C 12.609375 -12.234375 12.4375 -12.453125 12.21875 -12.640625 C 12 -12.835938 11.773438 -13 11.546875 -13.125 C 11.328125 -13.25 11.113281 -13.34375 10.90625 -13.40625 C 10.707031 -13.46875 10.5625 -13.503906 10.46875 -13.515625 C 9.65625 -13.640625 8.945312 -13.519531 8.34375 -13.15625 C 7.75 -12.789062 7.210938 -12.195312 6.734375 -11.375 L 6.5625 -11.40625 L 6.90625 -13.71875 Z M 4.4375 -14.078125"/></g><g id="w"><path d="M 15.671875 -5.640625 L 15.71875 -6.265625 C 15.800781 -7.566406 15.6875 -8.703125 15.375 -9.671875 C 15.070312 -10.648438 14.625 -11.46875 14.03125 -12.125 C 13.4375 -12.789062 12.734375 -13.304688 11.921875 -13.671875 C 11.109375 -14.035156 10.238281 -14.25 9.3125 -14.3125 C 8.3125 -14.375 7.382812 -14.257812 6.53125 -13.96875 C 5.675781 -13.675781 4.914062 -13.222656 4.25 -12.609375 C 3.59375 -12.003906 3.054688 -11.253906 2.640625 -10.359375 C 2.234375 -9.460938 1.992188 -8.429688 1.921875 -7.265625 C 1.859375 -6.296875 1.945312 -5.34375 2.1875 -4.40625 C 2.4375 -3.46875 2.84375 -2.613281 3.40625 -1.84375 C 3.96875 -1.082031 4.707031 -0.453125 5.625 0.046875 C 6.539062 0.546875 7.640625 0.835938 8.921875 0.921875 C 10.160156 0.992188 11.316406 0.84375 12.390625 0.46875 C 13.460938 0.101562 14.410156 -0.457031 15.234375 -1.21875 L 14.375 -2.21875 C 13.945312 -1.882812 13.539062 -1.582031 13.15625 -1.3125 C 12.78125 -1.050781 12.398438 -0.832031 12.015625 -0.65625 C 11.640625 -0.488281 11.25 -0.363281 10.84375 -0.28125 C 10.4375 -0.195312 9.988281 -0.171875 9.5 -0.203125 C 8.957031 -0.234375 8.382812 -0.351562 7.78125 -0.5625 C 7.1875 -0.769531 6.640625 -1.101562 6.140625 -1.5625 C 5.648438 -2.019531 5.253906 -2.640625 4.953125 -3.421875 C 4.648438 -4.203125 4.535156 -5.179688 4.609375 -6.359375 Z M 4.6875 -7.53125 C 4.738281 -8.3125 4.867188 -9.0625 5.078125 -9.78125 C 5.285156 -10.5 5.578125 -11.125 5.953125 -11.65625 C 6.335938 -12.195312 6.800781 -12.617188 7.34375 -12.921875 C 7.882812 -13.222656 8.519531 -13.351562 9.25 -13.3125 C 10.625 -13.21875 11.65625 -12.609375 12.34375 -11.484375 C 13.039062 -10.367188 13.328125 -8.867188 13.203125 -6.984375 Z M 4.6875 -7.53125"/></g><g id="x"><path d="M 4.78125 -0.59375 L 3.765625 -8.84375 C 3.722656 -9.1875 3.691406 -9.644531 3.671875 -10.21875 C 3.660156 -10.789062 3.738281 -11.367188 3.90625 -11.953125 C 4.082031 -12.535156 4.398438 -13.054688 4.859375 -13.515625 C 5.316406 -13.972656 5.992188 -14.253906 6.890625 -14.359375 C 7.546875 -14.441406 8.070312 -14.359375 8.46875 -14.109375 C 8.863281 -13.867188 9.175781 -13.546875 9.40625 -13.140625 C 9.632812 -12.742188 9.789062 -12.3125 9.875 -11.84375 C 9.957031 -11.382812 10.019531 -10.976562 10.0625 -10.625 L 11.203125 -1.375 L 13.65625 -1.6875 L 12.640625 -9.9375 C 12.585938 -10.363281 12.5625 -10.875 12.5625 -11.46875 C 12.570312 -12.070312 12.671875 -12.644531 12.859375 -13.1875 C 13.046875 -13.738281 13.351562 -14.226562 13.78125 -14.65625 C 14.207031 -15.082031 14.828125 -15.34375 15.640625 -15.4375 C 16.234375 -15.519531 16.722656 -15.492188 17.109375 -15.359375 C 17.503906 -15.234375 17.820312 -15.007812 18.0625 -14.6875 C 18.300781 -14.363281 18.484375 -13.957031 18.609375 -13.46875 C 18.742188 -12.976562 18.851562 -12.398438 18.9375 -11.734375 L 20.078125 -2.484375 L 22.546875 -2.78125 L 21.296875 -12.875 C 21.242188 -13.320312 21.132812 -13.816406 20.96875 -14.359375 C 20.800781 -14.898438 20.53125 -15.382812 20.15625 -15.8125 C 19.78125 -16.238281 19.269531 -16.578125 18.625 -16.828125 C 17.976562 -17.078125 17.148438 -17.140625 16.140625 -17.015625 C 15.847656 -16.984375 15.515625 -16.910156 15.140625 -16.796875 C 14.765625 -16.679688 14.375 -16.5 13.96875 -16.25 C 13.570312 -16.007812 13.195312 -15.679688 12.84375 -15.265625 C 12.5 -14.859375 12.21875 -14.335938 12 -13.703125 L 11.796875 -13.671875 C 11.640625 -13.972656 11.4375 -14.269531 11.1875 -14.5625 C 10.9375 -14.851562 10.628906 -15.113281 10.265625 -15.34375 C 9.898438 -15.570312 9.476562 -15.742188 9 -15.859375 C 8.53125 -15.984375 7.984375 -16.007812 7.359375 -15.9375 C 7.066406 -15.894531 6.71875 -15.8125 6.3125 -15.6875 C 5.914062 -15.5625 5.523438 -15.378906 5.140625 -15.140625 C 4.765625 -14.898438 4.421875 -14.582031 4.109375 -14.1875 C 3.796875 -13.800781 3.554688 -13.316406 3.390625 -12.734375 L 3.28125 -12.71875 L 3 -15.0625 L 0.53125 -14.75 L 2.3125 -0.28125 Z M 4.78125 -0.59375"/></g><g id="y"><path d="M 3.828125 -16.328125 C 5.203125 -16.679688 6.3125 -16.753906 7.15625 -16.546875 C 8.007812 -16.347656 8.6875 -15.984375 9.1875 -15.453125 C 9.695312 -14.921875 10.082031 -14.253906 10.34375 -13.453125 C 10.601562 -12.660156 10.84375 -11.84375 11.0625 -11 L 13 -3.28125 L 10.71875 -2.703125 L 10.375 -4.078125 C 9.945312 -3.410156 9.347656 -2.816406 8.578125 -2.296875 C 7.804688 -1.773438 7 -1.410156 6.15625 -1.203125 C 5.34375 -0.992188 4.59375 -0.953125 3.90625 -1.078125 C 3.21875 -1.203125 2.609375 -1.4375 2.078125 -1.78125 C 1.546875 -2.125 1.109375 -2.550781 0.765625 -3.0625 C 0.421875 -3.582031 0.171875 -4.132812 0.015625 -4.71875 C -0.128906 -5.320312 -0.164062 -5.953125 -0.09375 -6.609375 C -0.03125 -7.273438 0.164062 -7.90625 0.5 -8.5 C 0.84375 -9.09375 1.304688 -9.625 1.890625 -10.09375 C 2.472656 -10.5625 3.1875 -10.90625 4.03125 -11.125 C 4.882812 -11.332031 5.734375 -11.367188 6.578125 -11.234375 C 7.421875 -11.097656 8.160156 -10.789062 8.796875 -10.3125 L 8.5 -11.515625 C 8.113281 -13.066406 7.59375 -14.15625 6.9375 -14.78125 C 6.28125 -15.414062 5.335938 -15.582031 4.109375 -15.28125 C 3.585938 -15.144531 3.144531 -14.960938 2.78125 -14.734375 C 2.414062 -14.503906 2.109375 -14.234375 1.859375 -13.921875 C 1.609375 -13.609375 1.394531 -13.242188 1.21875 -12.828125 C 1.039062 -12.410156 0.875 -11.957031 0.71875 -11.46875 L -1.125 -12.5625 C -0.925781 -12.90625 -0.710938 -13.253906 -0.484375 -13.609375 C -0.265625 -13.972656 0.0234375 -14.320312 0.390625 -14.65625 C 0.753906 -14.988281 1.210938 -15.296875 1.765625 -15.578125 C 2.316406 -15.867188 3.003906 -16.117188 3.828125 -16.328125 Z M 9.3125 -8.296875 C 9.15625 -8.492188 8.945312 -8.722656 8.6875 -8.984375 C 8.4375 -9.242188 8.132812 -9.476562 7.78125 -9.6875 C 7.425781 -9.90625 7.023438 -10.0625 6.578125 -10.15625 C 6.128906 -10.25 5.632812 -10.226562 5.09375 -10.09375 C 4.539062 -9.957031 4.066406 -9.722656 3.671875 -9.390625 C 3.273438 -9.066406 2.96875 -8.691406 2.75 -8.265625 C 2.53125 -7.835938 2.394531 -7.363281 2.34375 -6.84375 C 2.289062 -6.320312 2.328125 -5.804688 2.453125 -5.296875 C 2.609375 -4.691406 2.847656 -4.195312 3.171875 -3.8125 C 3.503906 -3.4375 3.878906 -3.132812 4.296875 -2.90625 C 4.710938 -2.675781 5.144531 -2.535156 5.59375 -2.484375 C 6.039062 -2.429688 6.457031 -2.457031 6.84375 -2.5625 C 7.195312 -2.644531 7.539062 -2.800781 7.875 -3.03125 C 8.21875 -3.257812 8.519531 -3.53125 8.78125 -3.84375 C 9.050781 -4.164062 9.273438 -4.515625 9.453125 -4.890625 C 9.640625 -5.273438 9.773438 -5.6875 9.859375 -6.125 Z M 9.3125 -8.296875"/></g><g id="z"><path d="M 7.4375 -24.390625 L 5.09375 -23.546875 L 7.890625 -15.8125 L 7.796875 -15.765625 C 7.429688 -16.191406 7.035156 -16.507812 6.609375 -16.71875 C 6.191406 -16.925781 5.753906 -17.054688 5.296875 -17.109375 C 4.847656 -17.171875 4.390625 -17.171875 3.921875 -17.109375 C 3.453125 -17.046875 3.003906 -16.9375 2.578125 -16.78125 C 1.660156 -16.445312 0.878906 -15.96875 0.234375 -15.34375 C -0.398438 -14.726562 -0.882812 -14.007812 -1.21875 -13.1875 C -1.550781 -12.375 -1.71875 -11.46875 -1.71875 -10.46875 C -1.71875 -9.476562 -1.519531 -8.445312 -1.125 -7.375 C -0.726562 -6.28125 -0.210938 -5.34375 0.421875 -4.5625 C 1.054688 -3.789062 1.765625 -3.191406 2.546875 -2.765625 C 3.335938 -2.335938 4.175781 -2.09375 5.0625 -2.03125 C 5.945312 -1.96875 6.847656 -2.101562 7.765625 -2.4375 C 9.921875 -3.21875 11.046875 -4.582031 11.140625 -6.53125 L 11.234375 -6.578125 L 12.03125 -4.359375 L 14.375 -5.203125 Z M 10.046875 -9.84375 C 10.265625 -9.238281 10.367188 -8.628906 10.359375 -8.015625 C 10.359375 -7.410156 10.257812 -6.847656 10.0625 -6.328125 C 9.875 -5.804688 9.582031 -5.347656 9.1875 -4.953125 C 8.800781 -4.566406 8.347656 -4.28125 7.828125 -4.09375 C 7.234375 -3.875 6.644531 -3.773438 6.0625 -3.796875 C 5.476562 -3.828125 4.910156 -4 4.359375 -4.3125 C 3.804688 -4.625 3.285156 -5.101562 2.796875 -5.75 C 2.304688 -6.40625 1.878906 -7.242188 1.515625 -8.265625 C 1.140625 -9.304688 0.929688 -10.234375 0.890625 -11.046875 C 0.847656 -11.859375 0.9375 -12.566406 1.15625 -13.171875 C 1.382812 -13.773438 1.71875 -14.273438 2.15625 -14.671875 C 2.59375 -15.078125 3.097656 -15.382812 3.671875 -15.59375 C 4.171875 -15.769531 4.6875 -15.832031 5.21875 -15.78125 C 5.757812 -15.738281 6.273438 -15.570312 6.765625 -15.28125 C 7.265625 -15 7.722656 -14.601562 8.140625 -14.09375 C 8.566406 -13.59375 8.914062 -12.972656 9.1875 -12.234375 Z M 10.046875 -9.84375"/></g><g id="A"><path d="M 10.859375 -12.625 L 10.578125 -13.1875 C 10.015625 -14.363281 9.359375 -15.300781 8.609375 -16 C 7.859375 -16.695312 7.0625 -17.1875 6.21875 -17.46875 C 5.382812 -17.757812 4.519531 -17.859375 3.625 -17.765625 C 2.738281 -17.679688 1.878906 -17.441406 1.046875 -17.046875 C 0.148438 -16.609375 -0.59375 -16.050781 -1.1875 -15.375 C -1.789062 -14.695312 -2.234375 -13.929688 -2.515625 -13.078125 C -2.796875 -12.222656 -2.890625 -11.304688 -2.796875 -10.328125 C -2.710938 -9.347656 -2.414062 -8.332031 -1.90625 -7.28125 C -1.476562 -6.40625 -0.925781 -5.617188 -0.25 -4.921875 C 0.414062 -4.222656 1.179688 -3.675781 2.046875 -3.28125 C 2.921875 -2.894531 3.878906 -2.707031 4.921875 -2.71875 C 5.960938 -2.738281 7.0625 -3.03125 8.21875 -3.59375 C 9.332031 -4.132812 10.265625 -4.832031 11.015625 -5.6875 C 11.773438 -6.539062 12.320312 -7.5 12.65625 -8.5625 L 11.421875 -9 C 11.210938 -8.5 11.007812 -8.039062 10.8125 -7.625 C 10.613281 -7.207031 10.390625 -6.832031 10.140625 -6.5 C 9.890625 -6.164062 9.609375 -5.863281 9.296875 -5.59375 C 8.984375 -5.320312 8.601562 -5.078125 8.15625 -4.859375 C 7.675781 -4.617188 7.125 -4.441406 6.5 -4.328125 C 5.875 -4.210938 5.234375 -4.226562 4.578125 -4.375 C 3.921875 -4.53125 3.269531 -4.875 2.625 -5.40625 C 1.976562 -5.945312 1.398438 -6.742188 0.890625 -7.796875 Z M 0.375 -8.859375 C 0.03125 -9.554688 -0.222656 -10.269531 -0.390625 -11 C -0.566406 -11.726562 -0.625 -12.421875 -0.5625 -13.078125 C -0.5 -13.742188 -0.304688 -14.335938 0.015625 -14.859375 C 0.335938 -15.390625 0.828125 -15.816406 1.484375 -16.140625 C 2.722656 -16.734375 3.921875 -16.710938 5.078125 -16.078125 C 6.234375 -15.441406 7.222656 -14.273438 8.046875 -12.578125 Z M 0.375 -8.859375"/></g><g id="B"><path d="M 8.6875 -14.21875 L 8.328125 -14.734375 C 7.578125 -15.796875 6.773438 -16.609375 5.921875 -17.171875 C 5.078125 -17.742188 4.21875 -18.101562 3.34375 -18.25 C 2.46875 -18.394531 1.597656 -18.351562 0.734375 -18.125 C -0.117188 -17.894531 -0.925781 -17.515625 -1.6875 -16.984375 C -2.507812 -16.410156 -3.160156 -15.742188 -3.640625 -14.984375 C -4.128906 -14.222656 -4.441406 -13.394531 -4.578125 -12.5 C -4.710938 -11.613281 -4.660156 -10.691406 -4.421875 -9.734375 C -4.179688 -8.773438 -3.722656 -7.816406 -3.046875 -6.859375 C -2.492188 -6.066406 -1.828125 -5.378906 -1.046875 -4.796875 C -0.265625 -4.222656 0.582031 -3.816406 1.5 -3.578125 C 2.414062 -3.335938 3.382812 -3.304688 4.40625 -3.484375 C 5.4375 -3.671875 6.476562 -4.128906 7.53125 -4.859375 C 8.539062 -5.578125 9.347656 -6.414062 9.953125 -7.375 C 10.566406 -8.34375 10.957031 -9.378906 11.125 -10.484375 L 9.828125 -10.71875 C 9.703125 -10.195312 9.578125 -9.710938 9.453125 -9.265625 C 9.328125 -8.816406 9.164062 -8.40625 8.96875 -8.03125 C 8.769531 -7.664062 8.535156 -7.320312 8.265625 -7 C 8.003906 -6.6875 7.675781 -6.390625 7.28125 -6.109375 C 6.832031 -5.796875 6.3125 -5.53125 5.71875 -5.3125 C 5.132812 -5.101562 4.503906 -5.019531 3.828125 -5.0625 C 3.148438 -5.113281 2.445312 -5.347656 1.71875 -5.765625 C 1 -6.191406 0.300781 -6.890625 -0.375 -7.859375 Z M -1.046875 -8.8125 C -1.492188 -9.457031 -1.859375 -10.117188 -2.140625 -10.796875 C -2.429688 -11.484375 -2.597656 -12.15625 -2.640625 -12.8125 C -2.679688 -13.476562 -2.585938 -14.097656 -2.359375 -14.671875 C -2.128906 -15.253906 -1.710938 -15.753906 -1.109375 -16.171875 C 0.015625 -16.960938 1.195312 -17.132812 2.4375 -16.6875 C 3.6875 -16.238281 4.851562 -15.242188 5.9375 -13.703125 Z M -1.046875 -8.8125"/></g><g id="C"><path d="M -3.875 -16.3125 C -2.800781 -17.238281 -1.835938 -17.800781 -0.984375 -18 C -0.140625 -18.207031 0.625 -18.1875 1.3125 -17.9375 C 2.007812 -17.6875 2.648438 -17.257812 3.234375 -16.65625 C 3.828125 -16.0625 4.410156 -15.429688 4.984375 -14.765625 L 10.171875 -8.734375 L 8.375 -7.203125 L 7.453125 -8.28125 C 7.378906 -7.507812 7.113281 -6.710938 6.65625 -5.890625 C 6.195312 -5.078125 5.632812 -4.382812 4.96875 -3.8125 C 4.332031 -3.269531 3.675781 -2.898438 3 -2.703125 C 2.332031 -2.515625 1.6875 -2.457031 1.0625 -2.53125 C 0.4375 -2.601562 -0.144531 -2.789062 -0.6875 -3.09375 C -1.226562 -3.394531 -1.695312 -3.773438 -2.09375 -4.234375 C -2.5 -4.710938 -2.816406 -5.257812 -3.046875 -5.875 C -3.285156 -6.5 -3.390625 -7.148438 -3.359375 -7.828125 C -3.328125 -8.503906 -3.148438 -9.179688 -2.828125 -9.859375 C -2.515625 -10.546875 -2.023438 -11.171875 -1.359375 -11.734375 C -0.703125 -12.304688 0.0351562 -12.722656 0.859375 -12.984375 C 1.679688 -13.242188 2.484375 -13.300781 3.265625 -13.15625 L 2.453125 -14.09375 C 1.410156 -15.300781 0.457031 -16.046875 -0.40625 -16.328125 C -1.269531 -16.609375 -2.179688 -16.332031 -3.140625 -15.5 C -3.554688 -15.144531 -3.875 -14.785156 -4.09375 -14.421875 C -4.3125 -14.054688 -4.460938 -13.675781 -4.546875 -13.28125 C -4.640625 -12.894531 -4.671875 -12.472656 -4.640625 -12.015625 C -4.609375 -11.566406 -4.550781 -11.085938 -4.46875 -10.578125 L -6.625 -10.734375 C -6.601562 -11.140625 -6.570312 -11.550781 -6.53125 -11.96875 C -6.488281 -12.382812 -6.378906 -12.820312 -6.203125 -13.28125 C -6.023438 -13.738281 -5.753906 -14.21875 -5.390625 -14.71875 C -5.023438 -15.226562 -4.519531 -15.757812 -3.875 -16.3125 Z M 4.609375 -11.578125 C 4.378906 -11.691406 4.09375 -11.804688 3.75 -11.921875 C 3.40625 -12.046875 3.03125 -12.117188 2.625 -12.140625 C 2.21875 -12.171875 1.789062 -12.128906 1.34375 -12.015625 C 0.894531 -11.910156 0.457031 -11.675781 0.03125 -11.3125 C -0.382812 -10.945312 -0.695312 -10.523438 -0.90625 -10.046875 C -1.125 -9.566406 -1.234375 -9.085938 -1.234375 -8.609375 C -1.242188 -8.128906 -1.15625 -7.644531 -0.96875 -7.15625 C -0.78125 -6.675781 -0.519531 -6.238281 -0.1875 -5.84375 C 0.21875 -5.363281 0.65625 -5.023438 1.125 -4.828125 C 1.59375 -4.628906 2.066406 -4.519531 2.546875 -4.5 C 3.023438 -4.488281 3.472656 -4.5625 3.890625 -4.71875 C 4.316406 -4.875 4.679688 -5.082031 4.984375 -5.34375 C 5.253906 -5.582031 5.488281 -5.875 5.6875 -6.21875 C 5.894531 -6.570312 6.046875 -6.953125 6.140625 -7.359375 C 6.242188 -7.773438 6.285156 -8.195312 6.265625 -8.625 C 6.253906 -9.050781 6.191406 -9.46875 6.078125 -9.875 Z M 4.609375 -11.578125"/></g><g id="D"><path d="M 0.046875 -16.1875 C -0.335938 -16.5625 -0.785156 -16.800781 -1.296875 -16.90625 C -1.804688 -17.019531 -2.335938 -17.019531 -2.890625 -16.90625 C -3.453125 -16.789062 -4.019531 -16.570312 -4.59375 -16.25 C -5.164062 -15.925781 -5.703125 -15.507812 -6.203125 -15 C -6.679688 -14.5 -7.066406 -13.972656 -7.359375 -13.421875 C -7.648438 -12.878906 -7.820312 -12.328125 -7.875 -11.765625 C -7.925781 -11.210938 -7.851562 -10.664062 -7.65625 -10.125 C -7.46875 -9.59375 -7.128906 -9.085938 -6.640625 -8.609375 C -5.960938 -7.960938 -5.28125 -7.597656 -4.59375 -7.515625 C -3.90625 -7.441406 -3.21875 -7.519531 -2.53125 -7.75 C -1.851562 -7.976562 -1.179688 -8.289062 -0.515625 -8.6875 C 0.148438 -9.082031 0.796875 -9.425781 1.421875 -9.71875 C 2.046875 -10.007812 2.640625 -10.175781 3.203125 -10.21875 C 3.765625 -10.269531 4.269531 -10.078125 4.71875 -9.640625 C 4.914062 -9.441406 5.085938 -9.207031 5.234375 -8.9375 C 5.378906 -8.675781 5.460938 -8.378906 5.484375 -8.046875 C 5.503906 -7.710938 5.429688 -7.335938 5.265625 -6.921875 C 5.097656 -6.515625 4.796875 -6.085938 4.359375 -5.640625 C 3.816406 -5.085938 3.269531 -4.703125 2.71875 -4.484375 C 2.164062 -4.273438 1.648438 -4.164062 1.171875 -4.15625 C 0.691406 -4.144531 0.28125 -4.207031 -0.0625 -4.34375 C -0.414062 -4.488281 -0.675781 -4.644531 -0.84375 -4.8125 L -2.171875 -3.453125 C -1.785156 -3.078125 -1.316406 -2.800781 -0.765625 -2.625 C -0.222656 -2.445312 0.375 -2.398438 1.03125 -2.484375 C 1.6875 -2.566406 2.359375 -2.789062 3.046875 -3.15625 C 3.742188 -3.53125 4.4375 -4.070312 5.125 -4.78125 C 6.375 -6.0625 7.03125 -7.296875 7.09375 -8.484375 C 7.164062 -9.679688 6.738281 -10.726562 5.8125 -11.625 C 5.15625 -12.269531 4.46875 -12.632812 3.75 -12.71875 C 3.03125 -12.800781 2.320312 -12.722656 1.625 -12.484375 C 0.925781 -12.242188 0.234375 -11.925781 -0.453125 -11.53125 C -1.148438 -11.132812 -1.8125 -10.78125 -2.4375 -10.46875 C -3.0625 -10.15625 -3.644531 -9.957031 -4.1875 -9.875 C -4.726562 -9.789062 -5.21875 -9.957031 -5.65625 -10.375 C -5.832031 -10.550781 -5.988281 -10.769531 -6.125 -11.03125 C -6.257812 -11.300781 -6.332031 -11.601562 -6.34375 -11.9375 C -6.351562 -12.28125 -6.28125 -12.648438 -6.125 -13.046875 C -5.976562 -13.441406 -5.703125 -13.847656 -5.296875 -14.265625 C -4.890625 -14.679688 -4.472656 -14.984375 -4.046875 -15.171875 C -3.628906 -15.367188 -3.234375 -15.484375 -2.859375 -15.515625 C -2.484375 -15.554688 -2.144531 -15.519531 -1.84375 -15.40625 C -1.539062 -15.300781 -1.296875 -15.160156 -1.109375 -14.984375 Z M 0.046875 -16.1875"/></g><g id="E"><path d="M 2.40625 -8.34375 L -9.421875 -11.515625 L -11.09375 -9.46875 L 4.1875 -5.390625 L 6.140625 -1.8125 C 6.367188 -1.382812 6.5 -0.972656 6.53125 -0.578125 C 6.570312 -0.191406 6.472656 0.144531 6.234375 0.4375 C 6.015625 0.707031 5.722656 0.898438 5.359375 1.015625 C 4.992188 1.140625 4.609375 1.144531 4.203125 1.03125 L 5.265625 3.546875 C 5.753906 3.472656 6.203125 3.3125 6.609375 3.0625 C 7.015625 2.8125 7.335938 2.535156 7.578125 2.234375 C 7.921875 1.816406 8.113281 1.363281 8.15625 0.875 C 8.207031 0.382812 8.160156 -0.113281 8.015625 -0.625 C 7.867188 -1.144531 7.664062 -1.664062 7.40625 -2.1875 C 7.15625 -2.707031 6.890625 -3.21875 6.609375 -3.71875 L -2.34375 -20.15625 L -3.25 -19.0625 L 2.5 -8.4375 Z M 2.40625 -8.34375"/></g><clipPath id="a"><path d="M 25.117188 145.988281 L 346.867188 145.988281 L 346.867188 280.238281 L 25.117188 280.238281 Z M 25.117188 145.988281"/></clipPath><clipPath id="b"><path d="M 60.554688 67.011719 L 314.804688 67.011719 L 314.804688 321.261719 L 60.554688 321.261719 Z M 60.554688 67.011719"/></clipPath><clipPath id="c"><path d="M 103.910156 118.117188 L 271.007812 118.117188 L 271.007812 269.574219 L 103.910156 269.574219 Z M 103.910156 118.117188"/></clipPath></defs><g clip-path="url(#a)"><path fill="#00264D" d="M 185.992188 30.15625 C 97.230469 30.15625 25.117188 102.269531 25.117188 191.03125 C 25.117188 279.792969 97.230469 351.90625 185.992188 351.90625 C 274.753906 351.90625 346.867188 279.792969 346.867188 191.03125 C 346.867188 102.269531 274.753906 30.15625 185.992188 30.15625 Z M 185.992188 37.152344 C 271.066406 37.152344 339.875 105.957031 339.875 191.03125 C 339.875 276.105469 271.066406 344.914062 185.992188 344.914062 C 100.917969 344.914062 32.113281 276.105469 32.113281 191.03125 C 32.113281 105.957031 100.917969 37.152344 185.992188 37.152344 Z M 185.992188 37.152344"/></g><g clip-path="url(#b)"><path fill="#00264D" d="M 187.679688 67.011719 C 117.542969 67.011719 60.554688 123.996094 60.554688 194.136719 C 60.554688 264.277344 117.542969 321.261719 187.679688 321.261719 C 257.820312 321.261719 314.804688 264.277344 314.804688 194.136719 C 314.804688 123.996094 257.820312 67.011719 187.679688 67.011719 Z M 187.679688 72.539062 C 254.90625 72.539062 309.277344 126.910156 309.277344 194.136719 C 309.277344 261.363281 254.90625 315.734375 187.679688 315.734375 C 120.453125 315.734375 66.082031 261.363281 66.082031 194.136719 C 66.082031 126.910156 120.453125 72.539062 187.679688 72.539062 Z M 187.679688 72.539062"/></g><g clip-path="url(#c)"><path fill="#00264D" d="M 251.003906 256.800781 C 245.941406 256.800781 241.835938 252.703125 241.835938 247.640625 C 241.835938 242.582031 245.941406 238.476562 251.003906 238.476562 C 256.0625 238.476562 260.167969 242.582031 260.167969 247.640625 C 260.167969 252.703125 256.0625 256.800781 251.003906 256.800781 Z M 196.320312 233.214844 C 196.320312 237.285156 195.554688 240.964844 193.984375 244.242188 C 192.800781 246.703125 191.15625 248.953125 188.933594 251.007812 C 185.601562 254.078125 180.910156 256.707031 174.511719 258.578125 C 168.117188 260.449219 160.023438 261.535156 150.074219 261.535156 C 141.238281 261.535156 134.390625 260.636719 129.160156 259.246094 C 125.238281 258.203125 122.222656 256.882812 119.917969 255.464844 C 116.460938 253.332031 114.570312 251.023438 113.4375 248.808594 C 112.3125 246.597656 111.960938 244.40625 111.960938 242.582031 C 111.949219 241.34375 112.398438 239.496094 113.640625 237.460938 C 115.492188 234.40625 119.085938 230.914062 125.199219 228.160156 C 131.304688 225.410156 139.933594 223.421875 151.671875 223.421875 C 167.585938 223.421875 182.472656 225.425781 196.320312 228.949219 Z M 251.003906 227.652344 C 243.847656 227.652344 237.589844 231.417969 234.054688 237.066406 C 232.382812 236.230469 230.695312 235.421875 228.984375 234.628906 C 229.015625 233.050781 228.109375 231.542969 226.574219 230.867188 C 219.503906 227.769531 212.101562 225.0625 204.371094 222.8125 L 204.371094 219.546875 C 205.089844 219.335938 205.792969 219.109375 206.460938 218.847656 C 209.203125 217.753906 211.550781 216.277344 213.273438 215.0625 C 214.996094 213.847656 216.082031 212.894531 216.160156 212.820312 C 217.15625 211.941406 217.59375 210.683594 217.488281 209.457031 C 228.132812 200.300781 234.363281 187.222656 238.203125 175.058594 C 240.277344 168.480469 241.648438 162.148438 242.605469 156.804688 C 243.566406 151.464844 244.117188 147.085938 244.515625 144.53125 C 244.710938 143.261719 244.808594 142.089844 244.808594 141.011719 C 244.808594 138.855469 244.4375 137.046875 243.828125 135.574219 C 242.917969 133.351562 241.480469 131.933594 240.265625 131.132812 C 239.292969 130.484375 238.492188 130.214844 238.105469 130.101562 L 227.875 126.082031 C 227.886719 125.652344 227.644531 125.25 227.226562 125.09375 L 221.773438 123.058594 C 221.414062 121.113281 220.097656 119.398438 218.109375 118.660156 C 215.109375 117.539062 211.773438 119.066406 210.652344 122.066406 C 209.539062 125.0625 211.0625 128.398438 214.0625 129.519531 C 216.046875 130.257812 218.164062 129.824219 219.710938 128.589844 L 225.164062 130.621094 C 225.597656 130.78125 226.058594 130.617188 226.316406 130.265625 L 236.730469 134.363281 L 236.855469 134.394531 C 236.890625 134.402344 237.777344 134.664062 238.59375 135.539062 C 239.410156 136.421875 240.316406 137.90625 240.335938 141.011719 C 240.335938 141.839844 240.261719 142.777344 240.101562 143.839844 C 239.679688 146.519531 239.148438 150.792969 238.207031 156.011719 C 236.808594 163.839844 234.496094 173.765625 230.421875 183.265625 C 226.769531 191.785156 221.683594 199.910156 214.664062 205.976562 C 213.367188 205.582031 211.910156 205.839844 210.824219 206.804688 C 210.730469 206.886719 209.082031 208.308594 206.886719 209.644531 C 205.796875 210.308594 204.574219 210.953125 203.386719 211.414062 C 202.25 211.859375 201.160156 212.109375 200.300781 212.144531 C 199.40625 212.109375 198.273438 211.839844 197.09375 211.371094 C 195.25 210.644531 193.339844 209.472656 191.960938 208.492188 C 191.265625 208.003906 190.695312 207.566406 190.316406 207.253906 C 190.121094 207.101562 189.976562 206.980469 189.886719 206.902344 L 189.785156 206.8125 L 189.769531 206.796875 L 189.769531 206.800781 C 188.679688 205.835938 187.214844 205.582031 185.921875 205.984375 C 176.285156 197.660156 170.335938 185.417969 166.660156 173.71875 C 164.660156 167.382812 163.328125 161.230469 162.386719 156.011719 C 161.445312 150.792969 160.917969 146.519531 160.5 143.839844 C 160.328125 142.777344 160.257812 141.839844 160.257812 141.011719 C 160.257812 139.355469 160.539062 138.160156 160.902344 137.269531 C 161.457031 135.945312 162.199219 135.269531 162.808594 134.855469 C 163.109375 134.652344 163.378906 134.523438 163.546875 134.460938 L 163.722656 134.398438 L 163.738281 134.394531 L 163.867188 134.363281 L 174.308594 130.257812 C 174.566406 130.628906 175.050781 130.800781 175.496094 130.628906 L 180.910156 128.484375 C 182.476562 129.683594 184.605469 130.078125 186.574219 129.292969 C 189.554688 128.113281 191.007812 124.75 189.828125 121.777344 C 188.648438 118.800781 185.277344 117.34375 182.304688 118.523438 C 180.332031 119.304688 179.054688 121.050781 178.742188 122.996094 L 173.320312 125.144531 C 172.921875 125.300781 172.683594 125.6875 172.6875 126.09375 L 162.492188 130.105469 C 161.933594 130.261719 160.519531 130.761719 159.070312 132.144531 C 158.214844 132.964844 157.375 134.09375 156.769531 135.574219 C 156.160156 137.046875 155.785156 138.855469 155.785156 141.011719 C 155.785156 142.089844 155.882812 143.261719 156.082031 144.53125 C 156.484375 147.085938 157.03125 151.464844 157.988281 156.804688 C 159.429688 164.824219 161.789062 175.058594 166.066406 185.023438 C 169.917969 193.992188 175.347656 202.757812 183.113281 209.4375 C 182.996094 210.667969 183.4375 211.9375 184.429688 212.820312 C 184.546875 212.914062 186.429688 214.585938 189.246094 216.339844 C 190.65625 217.21875 192.304688 218.121094 194.132812 218.847656 C 194.832031 219.121094 195.566406 219.359375 196.320312 219.566406 L 196.320312 220.65625 C 182.402344 217.273438 167.503906 215.375 151.671875 215.375 C 134.820312 215.375 123.054688 219.175781 115.332031 224.492188 C 111.476562 227.152344 108.644531 230.1875 106.761719 233.289062 C 104.875 236.398438 103.917969 239.574219 103.910156 242.582031 C 103.910156 245.117188 104.347656 248.144531 105.707031 251.273438 C 106.726562 253.621094 108.269531 256.007812 110.457031 258.210938 C 113.742188 261.515625 118.441406 264.375 124.878906 266.378906 C 131.324219 268.386719 139.527344 269.574219 150.074219 269.574219 C 159.433594 269.574219 167.445312 268.675781 174.269531 266.976562 C 179.375 265.699219 183.820312 263.96875 187.632812 261.800781 C 193.339844 258.570312 197.613281 254.320312 200.371094 249.386719 C 203.136719 244.460938 204.375 238.925781 204.371094 233.214844 L 204.371094 231.207031 C 210.941406 233.222656 217.28125 235.574219 223.351562 238.234375 C 224.839844 238.882812 226.496094 238.554688 227.632812 237.546875 C 229.292969 238.3125 230.933594 239.105469 232.558594 239.914062 C 231.554688 242.292969 231.003906 244.902344 231.003906 247.640625 C 231.003906 258.679688 239.960938 267.632812 251.003906 267.632812 C 262.050781 267.632812 271.003906 258.679688 271.003906 247.640625 C 271.003906 236.601562 262.050781 227.652344 251.003906 227.652344"/></g><path fill="#00264D" d="M 251.003906 242.601562 C 248.21875 242.601562 245.964844 244.855469 245.964844 247.640625 C 245.964844 250.421875 248.21875 252.683594 251.003906 252.683594 C 253.789062 252.683594 256.046875 250.421875 256.046875 247.640625 C 256.046875 244.855469 253.789062 242.601562 251.003906 242.601562"/><g fill="#00264D"><use x="55.365" y="114.646" xmlns:xlink="http://www.w3.org/1999/xlink" xlink:href="#d" xlink:type="simple" xlink:actuate="onLoad" xlink:show="embed"/></g><g fill="#00264D"><use x="95.573" y="80.053" xmlns:xlink="http://www.w3.org/1999/xlink" xlink:href="#e" xlink:type="simple" xlink:actuate="onLoad" xlink:show="embed"/></g><g fill="#00264D"><use x="120.517" y="66.368" xmlns:xlink="http://www.w3.org/1999/xlink" xlink:href="#f" xlink:type="simple" xlink:actuate="onLoad" xlink:show="embed"/></g><g fill="#00264D"><use x="149.999" y="57.285" xmlns:xlink="http://www.w3.org/1999/xlink" xlink:href="#g" xlink:type="simple" xlink:actuate="onLoad" xlink:show="embed"/></g><g fill="#00264D"><use x="163.458" y="53.9" xmlns:xlink="http://www.w3.org/1999/xlink" xlink:href="#h" xlink:type="simple" xlink:actuate="onLoad" xlink:show="embed"/></g><g fill="#00264D"><use x="196.572" y="52.562" xmlns:xlink="http://www.w3.org/1999/xlink" xlink:href="#i" xlink:type="simple" xlink:actuate="onLoad" xlink:show="embed"/></g><g fill="#00264D"><use x="227.043" y="57.098" xmlns:xlink="http://www.w3.org/1999/xlink" xlink:href="#j" xlink:type="simple" xlink:actuate="onLoad" xlink:show="embed"/></g><g fill="#00264D"><use x="256.264" y="67.469" xmlns:xlink="http://www.w3.org/1999/xlink" xlink:href="#k" xlink:type="simple" xlink:actuate="onLoad" xlink:show="embed"/></g><g fill="#00264D"><use x="279.452" y="80.217" xmlns:xlink="http://www.w3.org/1999/xlink" xlink:href="#l" xlink:type="simple" xlink:actuate="onLoad" xlink:show="embed"/></g><g fill="#00264D"><use x="301.852" y="98.665" xmlns:xlink="http://www.w3.org/1999/xlink" xlink:href="#m" xlink:type="simple" xlink:actuate="onLoad" xlink:show="embed"/></g><g fill="#00264D"><use x="51.301" y="299.361" xmlns:xlink="http://www.w3.org/1999/xlink" xlink:href="#n" xlink:type="simple" xlink:actuate="onLoad" xlink:show="embed"/></g><g fill="#00264D"><use x="68.033" y="318.152" xmlns:xlink="http://www.w3.org/1999/xlink" xlink:href="#o" xlink:type="simple" xlink:actuate="onLoad" xlink:show="embed"/></g><g fill="#00264D"><use x="80.819" y="329.524" xmlns:xlink="http://www.w3.org/1999/xlink" xlink:href="#p" xlink:type="simple" xlink:actuate="onLoad" xlink:show="embed"/></g><g fill="#00264D"><use x="93.696" y="338.771" xmlns:xlink="http://www.w3.org/1999/xlink" xlink:href="#q" xlink:type="simple" xlink:actuate="onLoad" xlink:show="embed"/></g><g fill="#00264D"><use x="100.69" y="343.199" xmlns:xlink="http://www.w3.org/1999/xlink" xlink:href="#r" xlink:type="simple" xlink:actuate="onLoad" xlink:show="embed"/></g><g fill="#00264D"><use x="110.415" y="348.676" xmlns:xlink="http://www.w3.org/1999/xlink" xlink:href="#s" xlink:type="simple" xlink:actuate="onLoad" xlink:show="embed"/></g><g fill="#00264D"><use x="125.913" y="355.579" xmlns:xlink="http://www.w3.org/1999/xlink" xlink:href="#t" xlink:type="simple" xlink:actuate="onLoad" xlink:show="embed"/></g><g fill="#00264D"><use x="141.29" y="360.709" xmlns:xlink="http://www.w3.org/1999/xlink" xlink:href="#u" xlink:type="simple" xlink:actuate="onLoad" xlink:show="embed"/></g><g fill="#00264D"><use x="156.842" y="364.215" xmlns:xlink="http://www.w3.org/1999/xlink" xlink:href="#v" xlink:type="simple" xlink:actuate="onLoad" xlink:show="embed"/></g><g fill="#00264D"><use x="168.079" y="365.996" xmlns:xlink="http://www.w3.org/1999/xlink" xlink:href="#w" xlink:type="simple" xlink:actuate="onLoad" xlink:show="embed"/></g><g fill="#00264D"><use x="195.684" y="367.139" xmlns:xlink="http://www.w3.org/1999/xlink" xlink:href="#x" xlink:type="simple" xlink:actuate="onLoad" xlink:show="embed"/></g><g fill="#00264D"><use x="221.117" y="363.669" xmlns:xlink="http://www.w3.org/1999/xlink" xlink:href="#y" xlink:type="simple" xlink:actuate="onLoad" xlink:show="embed"/></g><g fill="#00264D"><use x="236.786" y="359.751" xmlns:xlink="http://www.w3.org/1999/xlink" xlink:href="#z" xlink:type="simple" xlink:actuate="onLoad" xlink:show="embed"/></g><g fill="#00264D"><use x="253.738" y="353.566" xmlns:xlink="http://www.w3.org/1999/xlink" xlink:href="#A" xlink:type="simple" xlink:actuate="onLoad" xlink:show="embed"/></g><g fill="#00264D"><use x="277.957" y="340.887" xmlns:xlink="http://www.w3.org/1999/xlink" xlink:href="#B" xlink:type="simple" xlink:actuate="onLoad" xlink:show="embed"/></g><g fill="#00264D"><use x="291.937" y="331.018" xmlns:xlink="http://www.w3.org/1999/xlink" xlink:href="#C" xlink:type="simple" xlink:actuate="onLoad" xlink:show="embed"/></g><g fill="#00264D"><use x="304.062" y="320.528" xmlns:xlink="http://www.w3.org/1999/xlink" xlink:href="#D" xlink:type="simple" xlink:actuate="onLoad" xlink:show="embed"/></g><g fill="#00264D"><use x="314.003" y="310.313" xmlns:xlink="http://www.w3.org/1999/xlink" xlink:href="#E" xlink:type="simple" xlink:actuate="onLoad" xlink:show="embed"/></g></svg>